# Alias OBJ Model File
# Exported from SketchUp, (c) 2000-2012 Trimble Navigation Limited
# File units = meters

mtllib naturePack_067.mtl

g Mesh1 Group1 Model

usemtl Fall_Leafs
v 1.76637 2.8373 -1.59611
vt -91.6445 90.6183
vn -0.34135 -0.730699 -0.591236
v 1.28216 2.7701 -1.2335
vt -67.9973 86.7429
v 1.15786 2.8373 -1.24479
vt -63.9815 90.6183
f 1/1/1 2/2/1 3/3/1

v 1.28287 2.7448 -1.20264
vt -67.414 85.2842
f 2/2/1 1/1/1 4/4/1

v 1.28465 2.69104 -1.13724
vt -66.1874 82.1842
f 4/4/1 1/1/1 5/5/1

v 1.76637 2.69104 -1.41535
vt -88.0864 82.1842
f 5/5/1 1/1/1 6/6/1

v 2.44696 2.8373 -1.20317
vt -59.7458 141.433
vn 0.34135 -0.730699 -0.591236
vt -32.3638 132.998
vt -28.8057 141.433
f 7/7/2 6/8/2 1/9/2

v 2.29042 2.69104 -1.11279
vt -56.1877 132.998
f 6/8/2 7/7/2 8/10/2

vt 47.3688 146.654
vn 0.6827 -0.730699 -0
v 2.29042 2.69104 -0.507663
vt 19.9867 138.22
vt 43.8107 138.22
f 7/11/3 9/12/3 8/13/3

v 2.44696 2.8373 -0.417287
vt 16.4286 146.654
f 9/12/3 7/11/3 10/14/3

usemtl Leafs
v 1.76637 2.8373 -0.0243469
vt -69.5419 0.958538
vn -2.53097e-016 -1 -1.11153e-017
vt -96.3369 47.3688
vt -96.3369 16.4286
f 11/15/4 7/16/4 10/17/4

vt -69.5419 62.8389
f 11/15/4 1/18/4 7/16/4

v 1.28028 2.8373 -1.24479
vt -50.4048 49.0073
f 11/15/4 12/19/4 1/18/4

v 1.28028 2.8373 -0.952863
vt -50.4048 37.5143
f 11/15/4 13/20/4 12/19/4

v 1.08577 2.8373 -0.417287
vt -42.747 16.4286
f 14/21/4 13/20/4 11/15/4

v 1.08577 2.8373 -0.952863
vt -42.747 37.5143
f 13/20/4 14/21/4 15/22/4

usemtl Fall_Leafs
vt -16.4286 111.705
vn -1 4.59674e-015 2.34632e-015
v 1.08577 3.17043 -1.02745
vt -40.4508 124.82
vt -37.5143 111.705
f 14/23/5 16/24/5 15/25/5

v 1.08577 3.17043 -0.417287
vt -16.4286 124.82
f 16/24/5 14/23/5 17/26/5

vt 28.8057 111.705
vn -0.5 0 0.866025
v 1.76637 3.17043 -0.0243469
vt 59.7458 124.82
vt 28.8057 124.82
f 14/27/6 18/28/6 17/29/6

vt 59.7458 111.705
f 18/28/6 14/27/6 11/30/6

v 1.24231 2.69104 -0.507663
vt 32.3638 41.8129
vn -0.34135 -0.730699 0.591236
vt 59.7458 50.2471
vt 28.8057 50.2471
f 19/31/7 11/32/7 14/33/7

v 1.76637 2.69104 -0.205099
vt 56.1877 41.8129
f 11/32/7 19/31/7 20/34/7

vt -48.9098 19.9867
vn -7.65454e-016 -1 -7.08169e-016
v 1.28465 2.69104 -0.937932
vt -50.5768 36.9265
vt -69.5419 8.07477
f 19/35/8 21/36/8 20/37/8

v 1.24231 2.69104 -0.937932
vt -48.9098 36.9265
f 21/36/8 19/35/8 22/38/8

vt -19.9867 36.5915
vn -0.6827 -0.730699 2.14322e-015
v 1.18477 2.7448 -0.932153
vt -36.6989 39.6915
vt -36.9265 36.5915
f 19/39/9 23/40/9 22/41/9

vt -16.4286 45.0256
f 14/42/9 23/40/9 19/39/9

vt -37.5143 45.0256
f 23/40/9 14/42/9 15/43/9

usemtl Wood
vt 42.747 117.202
vn -6.54259e-016 0.218488 0.97584
v 0.985773 2.7448 -0.932153
vt 38.81 113.47
vt 46.6446 113.47
f 15/44/10 24/45/10 23/46/10

v 1.01845 3.914 -1.19393
vt 40.0966 160.642
f 24/45/10 15/44/10 25/47/10

vt 42.747 130.642
f 25/47/10 15/44/10 16/48/10

vn 7.45435e-015 0.218488 0.97584
v 1.27097 3.17043 -1.02745
vt 50.0382 130.642
f 15/44/11 26/49/11 16/48/11

vt 50.4048 117.202
f 26/49/11 15/44/11 13/50/11

vn 2.43097e-015 0.218488 0.97584
f 23/46/12 13/50/12 15/44/12

v 1.28287 2.7448 -0.932153
vt 50.5066 113.47
f 13/50/12 23/46/12 27/51/12

vt 46.6446 103.521
vn 7.14274e-015 -0.106889 0.994271
vt 50.5768 101.393
vt 50.5066 103.521
f 23/52/13 21/53/13 27/54/13

vt 48.9098 101.393
f 21/53/13 23/52/13 22/55/13

vt 38.81 103.521
vn -4.93168e-015 -0.106889 0.994271
f 24/56/14 22/55/14 23/52/14

v 0.971935 2.32796 -0.976965
vt 38.2651 87.0156
f 22/55/14 24/56/14 28/57/14

v 0.985773 2.7448 -1.22925
vt -48.3955 109.291
vn -0.999449 0.0331807 -9.67557e-015
vt -38.4632 92.8712
vt -36.6989 109.291
f 29/58/15 28/59/15 24/60/15

v 0.971935 2.32796 -1.30174
vt -51.2495 92.8712
f 28/59/15 29/58/15 30/61/15

vt -38.81 98.1735
vn -4.50434e-015 0.171331 -0.985214
v 1.05661 2.32796 -1.30174
vt -41.5988 81.5161
vt -38.2651 81.5161
f 29/62/16 31/63/16 30/64/16

v 1.28287 2.7448 -1.22925
vt -50.5066 98.1735
f 32/65/16 31/63/16 29/62/16

v 1.21696 2.15289 -1.33218
vt -47.9117 74.5204
f 32/65/16 33/66/16 31/63/16

v 1.21696 1.8111 -1.39162
vt -47.9117 60.8619
f 32/65/16 34/67/16 33/66/16

v 1.33506 1.1727 -1.50264
vt -52.5614 35.3508
f 35/68/16 34/67/16 32/65/16

v 1.14337 1.71828 -1.40776
vt -45.0144 57.1526
f 35/68/16 36/69/16 34/67/16

v 1.03538 1.66104 -1.41771
vt -40.7628 54.8655
f 35/68/16 37/70/16 36/69/16

v 0.949794 1.66104 -1.41771
vt -37.3934 54.8655
f 35/68/16 38/71/16 37/70/16

v 0.933581 1.1727 -1.50264
vt -36.7552 35.3508
f 38/71/16 35/68/16 39/72/16

v 1.39502 0 -1.5626
vt -54.9221 -3.14144
vn -4.32446e-018 0.051064 -0.998695
vt -36.7552 43.0882
vt -52.5614 43.0882
f 40/73/17 39/74/17 35/75/17

v 0.87362 0 -1.5626
vt -34.3945 -3.14144
f 39/74/17 40/73/17 41/76/17

vt -54.9221 61.5197
vn 0 -1 -0
v 0.87362 0 -1.0412
vt -34.3945 40.9921
vt -34.3945 61.5197
f 40/77/18 42/78/18 41/79/18

v 1.39502 0 -1.0412
vt -54.9221 40.9921
f 42/78/18 40/77/18 43/80/18

vt 61.5197 -2.80454
vn 0.998695 0.051064 -1.99136e-018
v 1.33506 1.1727 -1.10116
vt 43.3528 43.4251
vt 40.9921 -2.80454
f 40/81/19 44/82/19 43/83/19

vt 59.159 43.4251
f 44/82/19 40/81/19 35/84/19

vt 44.7731 104.21
vn 0.999449 0.0331807 6.63795e-015
vt 43.3528 44.3998
vt 59.159 44.3998
f 5/85/20 44/86/20 35/87/20

vt 36.9265 104.21
f 44/86/20 5/85/20 21/88/20

vt 47.3481 106.328
vn 0.999449 0.0331807 5.21475e-015
f 4/89/21 21/88/21 5/85/21

vt 36.6989 106.328
f 21/88/21 4/89/21 27/90/21

vt 47.3481 106.61
vn 0.99961 0.0279401 5.66053e-015
vt 37.5143 110.253
vt 36.6989 106.61
f 4/91/22 13/92/22 27/93/22

vt 49.0073 110.253
f 13/92/22 4/91/22 12/94/22

vt 48.5628 107.606
f 12/94/22 4/91/22 2/95/22

vn 0.99961 0.0279401 3.82504e-016
vt 48.3955 106.61
f 2/95/23 4/91/23 32/96/23

vt 48.3955 106.328
f 4/89/20 35/87/20 32/97/20

f 5/85/20 35/87/20 4/89/20

vt -50.5066 114.587
vn -3.47215e-015 -0.165673 -0.986181
vt -45.585 118.28
vt -50.4787 115.597
f 32/98/24 3/99/24 2/100/24

vt -38.81 114.587
f 29/101/24 3/99/24 32/98/24

v 1.01845 3.914 -1.42567
vt -40.0966 161.264
f 3/99/24 29/101/24 45/102/24

vt -48.3955 109.105
vn -0.99961 0.0279401 1.5599e-017
vt -47.0053 155.155
vt -56.1286 155.155
f 29/103/25 25/104/25 45/105/25

vt -36.6989 109.105
f 25/104/25 29/103/25 24/106/25

usemtl Fall_Leafs
vt -40.0966 47.0053
v 0.260894 3.914 -0.805527
vt -10.2714 31.7137
vt -40.0966 56.1286
f 25/107/18 46/108/18 45/109/18

v 1.13432 3.914 -0.301254
vt -44.6583 11.8604
f 46/108/18 25/107/18 47/110/18

v 1.25019 3.914 -1.19393
vt -49.2199 47.0053
f 47/110/18 25/107/18 48/111/18

usemtl Wood
v 1.26688 3.31689 -1.06024
vt 49.877 136.551
vt 49.2199 160.642
f 25/47/10 49/112/10 48/113/10

f 25/47/10 16/48/10 49/112/10

usemtl Fall_Leafs
vt -40.4508 111.728
vn -0.628826 0.777546 2.39559e-016
v 1.29676 3.34106 -0.539098
vt -21.2243 122.411
vt -41.7419 120.898
f 16/114/26 50/115/26 49/116/26

vt -16.4286 111.728
f 50/115/26 16/114/26 17/117/26

usemtl Leafs
vt 69.5419 0.958538
vn 2.16242e-016 1 8.38476e-017
vt 42.747 40.4508
vt 42.747 16.4286
f 18/118/27 16/119/27 17/120/27

vt 50.0382 40.4508
f 16/119/27 18/118/27 26/121/27

v 1.27097 3.17043 -1.30075
vt 50.0382 51.2107
f 26/121/27 18/118/27 51/122/27

v 1.76637 3.17043 -1.59611
vt 69.5419 62.8389
f 52/123/27 51/122/27 18/118/27

v 1.25479 3.17043 -1.30075
vt 49.4013 51.2107
f 51/122/27 52/123/27 53/124/27

usemtl Fall_Leafs
vt -91.6445 111.705
vn -0.5 8.49801e-015 -0.866025
vt -68.3881 124.82
vt -91.6445 124.82
f 1/125/28 53/126/28 52/127/28

vt -63.9815 111.705
f 53/126/28 1/125/28 3/128/28

usemtl Leafs
vt -45.585 49.0073
f 1/18/4 12/19/4 3/129/4

usemtl Wood
vt -50.4048 118.28
vn -2.22837e-014 -0.165673 -0.986181
f 12/130/29 2/100/29 3/99/29

vt -49.4013 131.579
vn -2.76862e-014 -0.165673 -0.986181
f 53/131/30 12/130/30 3/99/30

vt -50.0382 131.579
f 12/130/30 53/131/30 51/132/30

v 1.27081 3.17622 -1.30172
vt -50.0318 131.811
vn -3.40988e-013 -0.165673 -0.986181
f 54/133/31 51/132/31 53/131/31

v 1.26688 3.31689 -1.09861
vt 43.2522 129.142
vn 0.99961 0.0279401 8.4914e-015
vt 51.2107 123.373
vt 51.249 123.602
f 55/134/32 51/135/32 54/136/32

vt 41.7419 129.142
f 49/137/32 51/135/32 55/134/32

vt 40.4508 123.373
f 51/135/32 49/137/32 26/138/32

vn 1.47804e-014 0.218488 0.97584
f 49/112/33 16/48/33 26/49/33

vn 0.99961 0.0279401 1.54725e-014
f 26/138/34 12/94/34 51/135/34

f 12/94/34 26/138/34 13/92/34

usemtl Fall_Leafs
vt -43.2522 120.898
f 49/116/26 50/115/26 55/139/26

v 1.29676 3.34106 -1.08136
vt -42.573 122.411
f 55/139/26 50/115/26 56/140/26

v 1.76637 3.34106 -0.26797
vt 69.5419 10.55
vn 0 1 -0
vt 51.0534 42.573
vt 51.0534 21.2243
f 57/141/35 56/142/35 50/143/35

v 1.76637 3.34106 -1.35248
vt 69.5419 53.2474
f 56/142/35 57/141/35 58/144/35

v 2.23597 3.34106 -0.539098
vt 88.0305 21.2243
f 58/144/35 57/141/35 59/145/35

vt 65.5001 62.7825
vn 0.314413 0.777546 0.54458
v 2.44696 3.17043 -0.417287
vt 91.6445 52.0996
vt 86.8488 62.7825
f 57/146/36 60/147/36 59/148/36

vt 60.7044 52.0996
f 60/147/36 57/146/36 18/149/36

vt 33.6014 116.855
vn -0.314413 0.777546 0.54458
vt 59.7458 106.172
vt 54.9501 116.855
f 50/150/37 18/151/37 57/152/37

vt 28.8057 106.172
f 18/151/37 50/150/37 17/153/37

usemtl Leafs
vt 96.3369 16.4286
f 52/123/27 18/118/27 60/154/27

usemtl Fall_Leafs
vt 60.7044 111.705
vn 0.5 0 0.866025
vt 91.6445 124.82
vt 60.7044 124.82
f 11/155/38 60/156/38 18/157/38

vt 91.6445 111.705
f 60/156/38 11/155/38 10/158/38

vt 64.2625 92.6271
vn 0.34135 -0.730699 0.591236
vt 91.6445 101.061
vt 60.7044 101.061
f 20/159/39 10/160/39 11/161/39

vt 88.0864 92.6271
f 10/160/39 20/159/39 9/162/39

vt -90.1741 43.8107
vt -90.1741 19.9867
f 20/37/8 8/163/8 9/164/8

vt -69.5419 55.7226
f 20/37/8 6/165/8 8/163/8

vt -50.5768 44.7731
f 20/37/8 5/166/8 6/165/8

f 20/37/8 21/36/8 5/166/8

vt 47.3688 111.705
vn 1 0 -0
vt 16.4286 124.82
vt 16.4286 111.705
f 7/167/40 60/168/40 10/169/40

v 2.44696 3.17043 -1.20317
vt 47.3688 124.82
f 60/168/40 7/167/40 61/170/40

vt -59.7458 111.705
vn 0.5 0 -0.866025
vt -28.8057 124.82
vt -59.7458 124.82
f 7/171/41 52/172/41 61/173/41

vt -28.8057 111.705
f 52/172/41 7/171/41 1/174/41

usemtl Leafs
vt 96.3369 47.3688
f 52/123/27 60/154/27 61/175/27

usemtl Fall_Leafs
v 2.23597 3.34106 -1.08136
vt 42.573 14.2667
vn 0.628826 0.777546 -0
vt 16.4286 3.58383
vt 47.3688 3.58383
f 62/176/42 60/177/42 61/178/42

vt 21.2243 14.2667
f 60/177/42 62/176/42 59/179/42

vt 88.0305 42.573
f 58/144/35 59/145/35 62/180/35

vt -54.9501 19.823
vn 0.314413 0.777546 -0.54458
vt -28.8057 9.14008
vt -33.6014 19.823
f 62/181/43 52/182/43 58/183/43

vt -59.7458 9.14008
f 52/182/43 62/181/43 61/184/43

vt -91.6445 63.2121
vn -0.314413 0.777546 -0.54458
vt -65.5001 73.895
vt -86.8488 73.895
f 52/185/44 56/186/44 58/187/44

vt -68.9533 63.5749
f 52/185/44 54/188/44 56/186/44

vt -68.3881 63.2121
f 54/188/44 52/185/44 53/189/44

usemtl Wood
f 53/131/24 45/102/24 54/133/24

f 3/99/24 45/102/24 53/131/24

v 1.25019 3.914 -1.42567
vt -49.2199 161.264
f 54/133/24 45/102/24 63/190/24

usemtl Fall_Leafs
v 1.13432 3.914 -2.31835
vt -44.6583 91.2735
vt -49.2199 56.1286
f 45/109/18 64/191/18 63/192/18

f 46/108/18 64/191/18 45/109/18

v 0.260894 3.914 -1.81407
vt -10.2714 71.4202
f 64/191/18 46/108/18 65/193/18

v 0 4.15776 -0.6549
vt -25.7835 111.752
vn -0.6827 -0.730699 -9.48383e-018
vt -71.4202 97.6951
vt -31.7137 97.6951
f 66/194/45 65/195/45 46/196/45

v 0 4.15776 -1.9647
vt -77.3504 111.752
f 65/195/45 66/194/45 67/197/45

vt -25.7835 163.691
vn -1 0 -0
v 0 4.71298 -1.9647
vt -77.3504 185.55
vt -77.3504 163.691
f 66/198/46 68/199/46 67/200/46

v 0 4.71298 -0.6549
vt -25.7835 185.55
f 68/199/46 66/198/46 69/201/46

vt -12.8917 163.691
vn -0.5 5.85632e-030 0.866025
v 1.13432 4.71298 -0
vt 38.6752 185.55
vt -12.8917 185.55
f 66/202/47 70/203/47 69/204/47

v 1.13432 4.15776 -0
vt 38.6752 163.691
f 70/203/47 66/202/47 71/205/47

vt -6.96154 81.3792
vt 38.6752 95.4362
vt -12.8917 95.4362
f 46/206/7 71/207/7 66/208/7

vt 32.745 81.3792
f 71/207/7 46/206/7 47/209/7

vt 44.6054 114.011
v 2.26864 4.15776 -0.6549
vt 90.2421 128.068
vt 38.6752 128.068
f 47/210/39 72/211/39 71/212/39

v 2.00775 3.914 -0.805527
vt 84.3119 114.011
f 72/211/39 47/210/39 73/213/39

vt -79.0451 31.7137
f 47/110/18 48/111/18 73/214/18

v 2.00775 3.914 -1.81407
vt -79.0451 71.4202
f 73/214/18 48/111/18 74/215/18

f 63/192/18 74/215/18 48/111/18

f 63/192/18 64/191/18 74/215/18

vt 6.96154 179.274
v 2.26864 4.15776 -1.9647
vt -38.6752 193.331
vt -32.745 179.274
f 64/216/2 75/217/2 74/218/2

v 1.13432 4.15776 -2.6196
vt 12.8917 193.331
f 75/217/2 64/216/2 76/219/2

vt -44.6054 146.643
vt -90.2421 160.7
vt -84.3119 146.643
f 65/220/1 76/221/1 64/222/1

vt -38.6752 160.7
f 76/221/1 65/220/1 67/223/1

vt -38.6752 185.55
vn -0.5 0 -0.866025
vt -90.2421 163.691
vt -38.6752 163.691
f 68/224/48 76/225/48 67/226/48

v 1.13432 4.71298 -2.6196
vt -90.2421 185.55
f 76/225/48 68/224/48 77/227/48

usemtl Leafs
vt 0 77.3504
vt 44.6583 0
vt 44.6583 103.134
f 68/228/35 70/229/35 77/230/35

vt 0 25.7835
f 70/229/35 68/228/35 69/231/35

usemtl Fall_Leafs
v 0.351639 4.99736 -0.857919
vt -33.7763 134.484
vn -0.628826 0.777546 9.10652e-018
vt -77.3504 116.679
vt -25.7835 116.679
f 78/232/49 68/233/49 69/234/49

v 0.351639 4.99736 -1.76168
vt -69.3575 134.484
f 68/233/49 78/232/49 79/235/49

v 1.13432 4.99736 -0.406038
vt 44.6583 15.9857
vt 13.8441 69.3575
vt 13.8441 33.7763
f 80/236/35 79/237/35 78/238/35

v 1.13432 4.99736 -2.21356
vt 44.6583 87.1481
f 79/237/35 80/236/35 81/239/35

v 1.917 4.99736 -0.857919
vt 75.4725 33.7763
f 81/239/35 80/236/35 82/240/35

vt 46.6681 117.122
v 2.26864 4.71298 -0.6549
vt 90.2421 99.317
vt 82.2493 117.122
f 80/241/36 83/242/36 82/243/36

vt 38.6752 99.317
f 83/242/36 80/241/36 70/244/36

vt -4.89886 151.846
vt 38.6752 134.041
vt 30.6823 151.846
f 78/245/37 70/246/37 80/247/37

vt -12.8917 134.041
f 70/246/37 78/245/37 69/248/37

usemtl Leafs
vt 89.3165 25.7835
f 77/230/35 70/229/35 83/249/35

usemtl Fall_Leafs
vn 0.5 5.85632e-030 0.866025
vt 90.2421 185.55
f 71/205/50 83/250/50 70/203/50

vt 90.2421 163.691
f 83/250/50 71/205/50 72/251/50

usemtl Leafs
vt -44.6583 0
vt -89.3165 77.3504
vt -89.3165 25.7835
f 71/252/18 75/253/18 72/254/18

vt -44.6583 103.134
f 71/252/18 76/255/18 75/253/18

f 66/231/18 76/255/18 71/252/18

f 76/255/18 66/231/18 67/228/18

usemtl Fall_Leafs
vt 12.8917 185.55
vt 12.8917 163.691
f 77/256/41 75/226/41 76/257/41

v 2.26864 4.71298 -1.9647
f 75/226/41 77/256/41 84/224/41

usemtl Leafs
vt 89.3165 77.3504
f 77/230/35 83/249/35 84/258/35

usemtl Fall_Leafs
vt 25.7835 185.55
vt 77.3504 163.691
vt 77.3504 185.55
f 83/259/40 75/260/40 84/261/40

vt 25.7835 163.691
f 75/260/40 83/259/40 72/262/40

vt 31.7137 162.959
vn 0.6827 -0.730699 -3.07673e-018
vt 77.3504 177.015
vt 25.7835 177.015
f 73/263/51 75/264/51 72/265/51

vt 71.4202 162.959
f 75/264/51 73/263/51 74/266/51

v 1.917 4.99736 -1.76168
vt 69.3575 65.0361
vn 0.628826 0.777546 1.01834e-017
vt 25.7835 47.2312
vt 77.3504 47.2312
f 85/267/52 83/268/52 84/269/52

vt 33.7763 65.0361
f 83/268/52 85/267/52 82/270/52

vt 75.4725 69.3575
f 81/239/35 82/240/35 85/271/35

vt -30.6823 47.6741
vt 12.8917 29.8693
vt 4.89886 47.6741
f 85/272/43 77/273/43 81/274/43

vt -38.6752 29.8693
f 77/273/43 85/272/43 84/275/43

vt -90.2421 64.5932
vt -46.6681 82.398
vt -82.2493 82.398
f 77/276/44 79/277/44 81/278/44

vt -38.6752 64.5932
f 79/277/44 77/276/44 68/279/44

usemtl Wood
vt 47.0053 152.659
vn 0.99961 0.0279401 2.70818e-015
vt 56.1286 152.659
f 48/280/53 54/136/53 63/281/53

f 48/280/53 55/134/53 54/136/53

f 55/134/53 48/280/53 49/137/53

usemtl Fall_Leafs
vt -64.8209 72.3821
f 56/186/44 54/188/44 55/282/44

usemtl Leafs
f 25/107/18 63/192/18 48/111/18

f 63/192/18 25/107/18 45/109/18

usemtl Wood
v 1.21696 1.8111 -1.03253
vt 47.9117 66.5496
vt 52.5614 41.2709
f 86/283/14 44/284/14 21/53/14

v 0.933581 1.1727 -1.10116
vt 36.7552 41.2709
f 44/284/14 86/283/14 87/285/14

v 1.09799 1.66104 -1.04866
vt 43.2279 60.6078
f 87/285/14 86/283/14 88/286/14

usemtl Fall_Leafs
vt 40.6508 85.6391
vn 0.783606 -0.621258 -2.11442e-014
v 1.09799 1.66104 -0.921667
vt 36.2861 78.1
vt 41.2859 78.1
f 86/287/54 89/288/54 88/289/54

v 1.21696 1.8111 -0.852981
vt 33.5819 85.6391
f 89/288/54 86/287/54 90/290/54

vt 40.6508 71.3032
vn 1 9.50675e-016 -1.76862e-014
v 1.21696 2.15289 -0.852981
vt 33.5819 84.7596
vt 33.5819 71.3032
f 86/291/55 91/292/55 90/293/55

v 1.21696 2.15289 -0.995786
vt 39.2042 84.7596
f 91/292/55 86/291/55 92/294/55

usemtl Wood
v 0.966123 2.15289 -0.995786
vt 38.0363 80.0836
vn -1.76562e-014 -0.106889 0.994271
vt 47.9117 80.0836
f 93/295/56 86/283/56 92/296/56

v 0.954775 1.8111 -1.03253
vt 37.5896 66.5496
f 86/283/56 93/295/56 94/297/56

v 0.966123 2.15289 -1.33218
vt -52.4481 85.975
vn -0.999449 0.0331807 -1.65799e-014
vt -40.6508 72.5111
vt -39.2042 85.975
f 95/298/57 94/299/57 93/300/57

v 0.954775 1.8111 -1.39162
vt -54.7882 72.5111
f 94/299/57 95/298/57 96/301/57

vt -38.0363 74.5204
vn -1.09756e-014 0.171331 -0.985214
vt -37.5896 60.8619
f 95/302/58 34/67/58 96/303/58

f 34/67/58 95/302/58 33/66/58

vn -9.95107e-015 0.171331 -0.985214
f 95/302/59 31/63/59 33/66/59

f 31/63/59 95/302/59 30/64/59

vn -0.999449 0.0331807 -1.74546e-014
f 93/300/60 30/61/60 95/298/60

f 30/61/60 93/300/60 28/59/60

v 1.05661 2.32796 -0.976965
vt 41.5988 87.0156
f 93/295/56 97/304/56 28/57/56

f 93/295/56 92/296/56 97/304/56

usemtl Fall_Leafs
v 1.05661 2.32796 -0.945558
vt 37.2267 39.4895
vn 0.737425 0.675429 -1.87459e-014
vt 39.2042 30.143
vt 38.4632 39.4895
f 98/305/61 92/306/61 97/307/61

vt 33.5819 30.143
f 92/306/61 98/305/61 91/308/61

v 0.699707 2.32796 -0.7395
vt 38.414 75.3133
vn 0.368713 0.675429 0.638629
vt 58.2837 65.9668
vt 54.639 75.3133
f 99/309/62 91/310/62 98/311/62

v 0.699707 2.15289 -0.554347
vt 34.7692 65.9668
f 91/310/62 99/309/62 100/312/62

v 0.342805 2.32796 -0.945558
vt -6.92525 93.9197
vn -0.368713 0.675429 0.638629
vt 12.9445 84.5732
vt 9.29977 93.9197
f 101/313/63 100/314/63 99/315/63

v 0.182457 2.15289 -0.852981
vt -10.57 84.5732
f 100/314/63 101/313/63 102/316/63

vt -37.2267 76.7023
vn -0.737425 0.675429 -1.28396e-017
v 0.182457 2.15289 -1.45025
vt -57.0965 67.3558
vt -33.5819 67.3558
f 101/317/64 103/318/64 102/319/64

v 0.342805 2.32796 -1.35767
vt -53.4517 76.7023
f 103/318/64 101/317/64 104/320/64

vt 27.5475 29.1142
vt 13.4963 53.4517
vt 13.4963 37.2267
f 99/321/35 104/322/35 101/323/35

v 0.699707 2.32796 -1.56373
vt 27.5475 61.5642
f 104/322/35 99/321/35 105/324/35

vt 38.2651 38.4632
f 105/324/35 99/321/35 28/325/35

vt 41.5988 37.2267
f 28/325/35 99/321/35 98/326/35

vt 41.5988 38.4632
f 28/325/35 98/326/35 97/327/35

usemtl Wood
f 97/304/14 21/53/14 28/57/14

f 92/296/14 21/53/14 97/304/14

f 86/283/14 21/53/14 92/296/14

f 28/57/14 21/53/14 22/55/14

usemtl Fall_Leafs
vt 38.2651 51.2495
f 30/328/35 105/324/35 28/325/35

v 1.05661 2.32796 -1.35767
vt 41.5988 53.4517
f 105/324/35 30/328/35 106/329/35

vt 41.5988 51.2495
f 106/329/35 30/328/35 31/330/35

vt 52.4481 30.143
vn 0.737425 0.675429 1.4808e-014
vt 53.4517 39.4895
vt 51.2495 39.4895
f 33/331/65 106/332/65 31/333/65

v 1.21696 2.15289 -1.45025
vt 57.0965 30.143
f 106/332/65 33/331/65 107/334/65

vt 54.7882 71.3032
vn 1 -2.55304e-015 2.93618e-014
vt 57.0965 84.7596
vt 52.4481 84.7596
f 34/335/66 107/336/66 33/337/66

v 1.21696 1.8111 -1.45025
vt 57.0965 71.3032
f 107/336/66 34/335/66 108/338/66

vt 57.0965 85.6391
vn 0.783606 -0.621258 3.8556e-014
vt 54.7882 85.6391
vt 55.4237 80.9755
f 108/339/67 34/340/67 36/341/67

usemtl Leafs
vt -37.5896 54.7882
vn 8.92433e-017 -1 4.69526e-017
vt -47.9117 57.0965
vt -47.9117 54.7882
f 96/342/68 108/343/68 34/344/68

v 0.699707 1.8111 -1.74888
vt -27.5475 68.8537
f 96/342/68 109/345/68 108/343/68

v 0.699707 1.8111 -0.554347
vt -27.5475 21.8247
f 110/346/68 109/345/68 96/342/68

v 0.182457 1.8111 -0.852981
vt -7.18336 33.5819
f 111/347/68 109/345/68 110/346/68

v 0.182457 1.8111 -1.45025
vt -7.18336 57.0965
f 109/345/68 111/347/68 112/348/68

usemtl Fall_Leafs
vt -57.0965 51.4109
vn -0.783606 -0.621258 -2.29979e-029
v 0.301425 1.66104 -0.921667
vt -36.2861 43.8717
vt -33.5819 51.4109
f 112/349/69 113/350/69 111/351/69

v 0.301425 1.66104 -1.38156
vt -54.3923 43.8717
f 113/350/69 112/349/69 114/352/69

vt -34.7692 84.3616
vn -0.391803 -0.621258 -0.678623
v 0.699707 1.66104 -1.61151
vt -55.5796 76.8224
vt -37.4734 76.8224
f 112/353/70 115/354/70 114/355/70

vt -58.2837 84.3616
f 115/354/70 112/353/70 109/356/70

vt -34.7692 84.7596
vt -58.2837 71.3032
vt -34.7692 71.3032
f 103/357/48 109/358/48 112/359/48

v 0.699707 2.15289 -1.74888
vt -58.2837 84.7596
f 109/358/48 103/357/48 116/360/48

vt -38.414 40.8784
vn -0.368713 0.675429 -0.638629
vt -58.2837 31.5319
vt -34.7692 31.5319
f 104/361/71 116/362/71 103/363/71

vt -54.639 40.8784
f 116/362/71 104/361/71 105/364/71

vt -9.29977 22.272
vn 0.368713 0.675429 -0.638629
vt 10.57 12.9255
vt 6.92525 22.272
f 106/365/72 116/366/72 105/367/72

vt -12.9445 12.9255
f 116/366/72 106/365/72 107/368/72

vt -12.9445 71.3032
vt 10.57 84.7596
vt -12.9445 84.7596
f 108/369/41 116/370/41 107/371/41

vt 10.57 71.3032
f 116/370/41 108/369/41 109/372/41

vt -11.2718 96.8121
vn 0.391803 -0.621258 -0.678623
vt 10.57 101.476
vt -12.9445 101.476
f 36/373/73 109/374/73 108/375/73

vt -7.39385 93.9365
f 37/376/73 109/374/73 36/373/73

vt 7.86583 93.9365
f 109/374/73 37/376/73 115/377/73

vt -37.3934 55.8155
vt -27.5475 63.4454
vt -40.7628 55.8155
f 38/378/18 115/379/18 37/380/18

v 0.699707 1.66104 -0.691719
vt -27.5475 27.233
f 117/381/18 115/379/18 38/378/18

vt -11.8671 36.2861
f 113/382/18 115/379/18 117/381/18

vt -11.8671 54.3923
f 115/379/18 113/382/18 114/383/18

vt 12.9445 35.5743
vn -0.391803 -0.621258 0.678623
vt -7.86583 28.0351
vt 10.2404 28.0351
f 110/384/74 113/385/74 117/386/74

vt -10.57 35.5743
f 113/385/74 110/384/74 111/387/74

vt 12.9445 84.7596
vt -10.57 71.3032
vt 12.9445 71.3032
f 100/388/6 111/389/6 110/390/6

vt -10.57 84.7596
f 111/389/6 100/388/6 102/391/6

vt -57.0965 84.7596
vt -33.5819 71.3032
vt -33.5819 84.7596
f 103/392/46 111/393/46 102/394/46

vt -57.0965 71.3032
f 111/393/46 103/392/46 112/395/46

vt 34.7692 71.3032
vt 58.2837 84.7596
vt 34.7692 84.7596
f 110/396/38 91/397/38 100/398/38

vt 58.2837 71.3032
f 91/397/38 110/396/38 90/399/38

vt 37.4734 45.1493
vn 0.391803 -0.621258 0.678623
vt 58.2837 52.6884
vt 34.7692 52.6884
f 117/400/75 90/401/75 110/402/75

vt 55.5796 45.1493
f 90/401/75 117/400/75 89/403/75

v 0.949794 1.66104 -1.04866
vt -37.3934 41.2859
vt -43.2279 36.2861
f 118/404/18 89/405/18 117/381/18

vt -43.2279 41.2859
f 89/405/18 118/404/18 88/406/18

usemtl Wood
vt 37.3934 60.6078
f 118/407/14 87/285/14 88/286/14

vt -55.8155 66.6002
vn -0.999449 0.0331807 -7.16209e-015
vt -43.3528 47.3634
vt -41.2859 66.6002
f 38/408/76 87/409/76 118/410/76

vt -59.159 47.3634
f 87/409/76 38/408/76 39/411/76

vt -61.5197 1.75632
vn -0.998695 0.051064 -1.99136e-018
vt -43.3528 47.9859
vt -59.159 47.9859
f 41/412/77 87/413/77 39/414/77

vt -40.9921 1.75632
f 87/413/77 41/412/77 42/415/77

vt 34.3945 2.09322
vn 4.32446e-018 0.051064 0.998695
vt 52.5614 48.3228
vt 36.7552 48.3228
f 42/416/78 44/417/78 87/418/78

vt 54.9221 2.09322
f 44/417/78 42/416/78 43/419/78

usemtl Fall_Leafs
f 117/381/18 38/378/18 118/404/18

usemtl Wood
vn -0.999449 0.0331807 -1.58518e-014
f 118/410/79 96/301/79 38/408/79

f 96/301/79 118/410/79 94/299/79

vn -1.28777e-014 -0.106889 0.994271
f 118/407/80 86/283/80 94/297/80

f 86/283/80 118/407/80 88/286/80

usemtl Leafs
vt -47.9117 33.5819
vt -37.5896 40.6508
vt -47.9117 40.6508
f 90/420/68 94/421/68 86/422/68

f 94/421/68 90/420/68 110/346/68

f 110/346/68 96/342/68 94/421/68

usemtl Wood
vn -4.32428e-015 0.171331 -0.985214
f 96/303/81 37/70/81 38/71/81

f 37/70/81 96/303/81 36/69/81

f 36/69/81 96/303/81 34/67/81

