# Alias OBJ Model File
# Exported from SketchUp, (c) 2000-2012 Trimble Navigation Limited
# File units = meters

mtllib naturePack_071.mtl

g Mesh1 Large_Oak_Dark Model

usemtl Wood
v 1.33519 0.97155 -1.13289
vt -44.6018 43.4549
vn -0.994694 0.102876 -0
v 1.23471 0 -1.58299
vt -62.3225 5.00085
v 1.23471 0 -1.0324
vt -40.6459 5.00085
f 1/1/1 2/2/1 3/3/1

v 1.33519 0.97155 -1.48251
vt -58.3665 43.4549
f 2/2/1 1/1/1 4/4/1

usemtl Leafs
vt -52.5665 44.6018
vn 0 -1 -0
v 0.9211 0.97155 -0.287694
vt -36.2638 11.3265
vt -52.5665 58.3665
f 1/5/2 5/6/2 4/7/2

v 2.0989 0.97155 -0.287694
vt -82.6339 11.3265
f 5/6/2 1/5/2 6/8/2

v 1.68481 0.97155 -1.13289
vt -66.3312 44.6018
f 6/8/2 1/5/2 7/9/2

usemtl Wood
vt 48.6105 4.18148
vn -1.52278e-017 0.102876 0.994694
vt 66.3312 42.6355
vt 52.5665 42.6355
f 3/10/3 7/11/3 1/12/3

v 1.78529 0 -1.0324
vt 70.2872 4.18148
f 7/11/3 3/10/3 8/13/3

vt -48.6105 40.6459
v 1.78529 0 -1.58299
vt -70.2872 62.3225
vt -70.2872 40.6459
f 3/14/2 9/15/2 8/16/2

vt -48.6105 62.3225
f 9/15/2 3/14/2 2/17/2

vt -52.5665 32.0425
vn -1.52278e-017 0.102876 -0.994694
vt -70.2872 -6.41148
vt -48.6105 -6.41148
f 4/18/4 9/19/4 2/20/4

v 1.68481 0.97155 -1.48251
vt -66.3312 32.0425
f 9/19/4 4/18/4 10/21/4

usemtl Leafs
v 2.0989 0.97155 -2.3277
vt -82.6339 91.6419
vt -66.3312 58.3665
f 4/7/2 11/22/2 10/23/2

v 0.9211 0.97155 -2.3277
vt -36.2638 91.6419
f 4/7/2 12/24/2 11/22/2

f 5/6/2 12/24/2 4/7/2

v 0.3322 0.97155 -1.3077
vt -13.0787 51.4842
f 12/24/2 5/6/2 13/25/2

vt 8.32283 19.0939
vn -0.785572 -0.420915 0.45355
v 0 1.59155 -1.3077
vt -44.5866 46.0032
vt -38.0472 19.0939
f 5/26/5 14/27/5 13/28/5

v 0.755 1.59155 -7.21911e-016
vt 14.8622 46.0032
f 14/27/5 5/26/5 15/29/5

vt 36.2638 29.9291
vn -2.64297e-016 -0.420915 0.9071
v 2.265 1.59155 -0
vt 89.1732 56.8384
vt 29.7244 56.8384
f 5/30/6 16/31/6 15/32/6

vt 82.6339 29.9291
f 16/31/6 5/30/6 6/33/6

vt 51.126 62.4348
vn 0.785572 -0.420915 0.45355
v 3.02 1.59155 -1.3077
vt 104.035 89.3441
vt 44.5866 89.3441
f 6/34/7 17/35/7 16/36/7

v 2.6878 0.97155 -1.3077
vt 97.4961 62.4348
f 17/35/7 6/34/7 18/37/7

vt -105.819 51.4842
f 6/8/2 11/22/2 18/38/2

f 6/8/2 7/9/2 11/22/2

f 10/23/2 11/22/2 7/9/2

usemtl Wood
vt 44.6018 31.2232
vn 0.994694 0.102876 -0
vt 62.3225 -7.23085
vt 58.3665 31.2232
f 7/39/8 9/40/8 10/41/8

vt 40.6459 -7.23085
f 9/40/8 7/39/8 8/42/8

usemtl Leafs
v 2.265 1.59155 -2.6154
vt 44.5866 111.015
vn 0.785572 -0.420915 -0.45355
vt -8.32283 84.1052
vt 38.0472 84.1052
f 19/43/9 18/44/9 11/45/9

vt -14.8622 111.015
f 18/44/9 19/43/9 17/46/9

v 2.09135 3.77155 -2.31463
vt 37.75 131.12
vn 0.857899 0.136674 -0.495308
vt -14.8622 44.4802
vt 44.5866 44.4802
f 20/47/10 17/48/10 19/49/10

v 2.6727 3.77155 -1.3077
vt -8.02559 131.12
f 17/48/10 20/47/10 21/50/10

vt -8.02559 4.26451
vn 0.550841 0.771642 -0.318028
vt 37.75 4.26451
v 1.51 4.60155 -1.3077
vt 14.8622 55.6391
f 21/51/11 20/52/11 22/53/11

vt -82.3366 24.1282
vn 2.32046e-017 0.771642 -0.636057
v 0.92865 3.77155 -2.31463
vt -36.561 24.1282
vt -59.4488 75.5028
f 20/54/12 23/55/12 22/56/12

vt -89.1732 47.9984
vn 4.81396e-018 0.136674 -0.990616
vt -36.561 134.638
vt -82.3366 134.638
f 19/57/13 23/58/13 20/59/13

v 0.755 1.59155 -2.6154
vt -29.7244 47.9984
f 23/58/13 19/57/13 24/60/13

vt -82.6339 73.27
vn 5.15472e-018 -0.420915 -0.9071
vt -29.7244 100.179
vt -89.1732 100.179
f 11/61/14 24/62/14 19/63/14

vt -36.2638 73.27
f 24/62/14 11/61/14 12/64/14

vt -51.126 40.7643
vn -0.785572 -0.420915 -0.45355
vt -104.035 67.6736
vt -97.4961 40.7643
f 13/65/15 24/66/15 12/67/15

vt -44.5866 67.6736
f 24/66/15 13/65/15 14/68/15

vt -44.5866 58.5532
vn -0.857899 0.136674 -0.495308
vt -97.1988 145.193
vt -104.035 58.5532
f 14/69/16 23/70/16 24/71/16

v 0.3473 3.77155 -1.3077
vt -51.4232 145.193
f 23/70/16 14/69/16 25/72/16

vt -44.5866 65.5897
vn -0.857899 0.136674 0.495308
v 0.92865 3.77155 -0.300771
vt 8.02559 152.23
vt -37.75 152.23
f 14/73/17 26/74/17 25/75/17

vt 14.8622 65.5897
f 26/74/17 14/73/17 15/76/17

vt 29.7244 62.0715
vn -5.3296e-016 0.136674 0.990616
v 2.09135 3.77155 -0.300771
vt 82.3366 148.711
vt 36.561 148.711
f 15/77/18 27/78/18 26/79/18

vt 89.1732 62.0715
f 27/78/18 15/77/18 16/80/18

vt 104.035 51.5167
vn 0.857899 0.136674 0.495308
vt 51.4232 138.156
vt 44.5866 51.5167
f 17/81/19 27/82/19 16/83/19

vt 97.1988 138.156
f 27/82/19 17/81/19 21/84/19

vt 97.1988 43.9919
vn 0.550841 0.771642 0.318028
vt 74.311 95.3665
vt 51.4232 43.9919
f 21/85/20 22/86/20 27/87/20

vt 82.3366 103.583
vn -3.90909e-016 0.771642 0.636057
vt 59.4488 154.958
vt 36.561 103.583
f 27/88/21 22/89/21 26/90/21

vt -14.8622 174.821
vn -0.550841 0.771642 0.318028
vt -37.75 123.447
vt 8.02559 123.447
f 22/91/22 25/92/22 26/93/22

vt -74.311 135.094
vn -0.550841 0.771642 -0.318028
vt -97.1988 83.7193
vt -51.4232 83.7193
f 22/94/23 23/95/23 25/96/23

