# Alias OBJ Model File
# Exported from SketchUp, (c) 2000-2012 Trimble Navigation Limited
# File units = meters

mtllib naturePack_055.mtl

g Mesh1 Group1 Model

usemtl Green_leafs
v 0.638731 1.86765 -0.469808
vt 3.44488 73.9321
vn 0.612372 -0.707107 -0.353553
v 0.610459 1.78305 -0.349562
vt -0.0984252 69.2213
v 0.565459 1.78305 -0.427504
vt 3.44488 69.2213
f 1/1/1 2/2/1 3/3/1

v 0.683731 1.86765 -0.391865
vt -0.0984252 73.9321
f 2/2/1 1/1/1 4/4/1

v 0.638731 2.22305 -0.469808
vt 3.44488 87.5215
vn 0.866025 0 -0.5
vt -0.0984252 73.5297
vt 3.44488 73.5297
f 5/5/2 4/6/2 1/7/2

v 0.683731 2.22305 -0.391865
vt -0.0984252 87.5215
f 4/6/2 5/5/2 6/8/2

vt 25.1469 18.4964
vn 0 1 -0
v 0.592798 2.22305 -0.339365
vt 23.3385 13.3608
vt 26.9185 15.4278
f 5/9/3 7/10/3 6/11/3

v 0.547798 2.22305 -0.417308
vt 21.5669 16.4294
f 7/10/3 5/9/3 8/12/3

vt -31.026 87.5215
vn -0.5 0 -0.866025
v 0.547798 1.89305 -0.417308
vt -26.8922 74.5294
vt -26.8922 87.5215
f 5/13/4 9/14/4 8/15/4

vt -31.026 73.5297
f 1/16/4 9/14/4 5/13/4

v 0.456865 1.89305 -0.364808
vt -22.7583 74.5294
f 1/16/4 10/17/4 9/14/4

vt -27.695 70.1987
f 3/18/4 10/17/4 1/16/4

v 0.456865 1.78305 -0.364808
vt -22.7583 70.1987
f 10/17/4 3/18/4 11/19/4

vt -22.2621 16.8309
vn 0 -1 -0
v 0.501865 1.78305 -0.286865
vt -19.7585 11.2939
vt -17.9868 14.3625
f 3/20/5 12/21/5 11/22/5

vt -24.0338 13.7623
f 12/21/5 3/20/5 2/23/5

vt 31.026 73.5297
vn 0.5 -2.38891e-015 0.866025
vt 22.7583 70.1987
vt 27.695 70.1987
f 4/24/6 12/25/6 2/26/6

v 0.501865 1.89305 -0.286865
vt 22.7583 74.5294
f 12/25/6 4/24/6 13/27/6

v 0.592798 1.89305 -0.339365
vt 26.8922 74.5294
f 13/27/6 4/24/6 14/28/6

vt 31.026 87.5215
f 6/29/6 14/28/6 4/24/6

vt 26.8922 87.5215
f 14/28/6 6/29/6 7/30/6

vt -3.44488 87.5215
vn -0.866025 0 0.5
vt 0.0984252 74.5294
vt 0.0984252 87.5215
f 8/31/7 14/32/7 7/33/7

vt -3.44488 74.5294
f 14/32/7 8/31/7 9/34/7

vt 19.7585 11.2939
f 9/12/3 13/35/3 14/10/3

vt 17.9868 14.3625
f 13/35/3 9/12/3 10/36/3

v 0.436865 2.32 -0.399449
vt 5.01969 91.3386
vn 0.866025 8.8401e-018 -0.5
vt -0.0984252 74.5294
vt 3.44488 74.5294
f 15/37/8 13/38/8 10/39/8

v 0.521865 2.32 -0.252224
vt -1.67323 91.3386
f 16/40/8 13/38/8 15/37/8

vt -0.0984252 70.1987
f 13/38/8 16/40/8 12/41/8

v 0.436865 0 -0.399449
vt 5.01969 -2.01186e-016
f 16/40/8 17/42/8 12/41/8

v 0.521865 0 -0.252224
vt -1.67323 -2.01186e-016
f 17/42/8 16/40/8 18/43/8

v 0.436865 2.32 -0.105
vt 12.1797 91.3386
vn 0.866025 -1.95022e-018 0.5
vt 18.8727 2.50178e-017
vt 18.8727 91.3386
f 19/44/9 18/45/9 16/46/9

v 0.436865 0 -0.105
vt 12.1797 2.50178e-017
f 18/45/9 19/44/9 20/47/9

vt 17.1994 91.3386
vn -1.86351e-013 0 1
v 0.266865 0 -0.105
vt 10.5065 0
vt 17.1994 0
f 19/48/10 21/49/10 20/50/10

v 0.266865 2.32 -0.105
vt 10.5065 91.3386
f 21/49/10 19/48/10 22/51/10

v 0.266865 2.32 -0.399449
vt 10.5065 15.7263
vt 10.5065 4.13386
vt 17.1994 4.13386
f 23/52/3 22/53/3 19/54/3

v 0.181865 2.32 -0.252224
vt 7.16005 9.93009
f 22/53/3 23/52/3 24/55/3

vt -12.1797 77.3315
vn -0.726848 0.543682 -0.419646
v 0.285565 2.37 -0.367059
vt -18.1364 79.677
vt -18.8727 77.3315
f 24/56/11 25/57/11 23/58/11

v 0.219265 2.37 -0.252224
vt -12.916 79.677
f 25/57/11 24/56/11 26/59/11

vt -5.01969 82.7303
vn -0.726848 0.543682 0.419646
v 0.285565 2.37 -0.137389
vt 0.937008 85.0758
vt -4.28346 85.0758
f 24/60/12 27/61/12 26/62/12

vt 1.67323 82.7303
f 27/61/12 24/60/12 22/63/12

v 0.246865 0.841572 -0.139641
vt 0.0984252 33.1328
vn -0.866025 -1.0671e-018 0.5
vt 1.67323 91.3386
vt -5.01969 91.3386
f 28/64/13 22/65/13 24/66/13

vt 1.67323 -1.19151e-017
f 22/65/13 28/64/13 21/67/13

v 0.246865 0.729736 -0.139641
vt 0.0984252 28.7297
f 29/68/13 21/67/13 28/64/13

v 0.181865 0 -0.252224
vt -5.01969 -1.19151e-017
f 21/67/13 29/68/13 30/69/13

v 0.201865 0.729736 -0.217583
vt -3.44488 28.7297
f 30/69/13 29/68/13 31/70/13

v 0.126564 0.729736 -0.070185
vt -4.98283 2.76319
vt -7.94745 8.56627
vt -9.71911 5.49768
f 32/71/5 31/72/5 29/73/5

v 0.081564 0.729736 -0.148127
vt -3.21118 5.83178
f 31/72/5 32/71/5 33/74/5

v 0.065 0.800824 -0.034641
vt 0.0984252 20.2447
vn -0.612372 -0.707107 0.353553
vt -3.44488 16.2867
vt 0.0984252 16.2867
f 34/75/14 33/76/14 32/77/14

v 0.02 0.800824 -0.112583
vt -3.44488 20.2447
f 33/76/14 34/75/14 35/78/14

vt 0.0984252 31.5285
v 0.02 1.50157 -0.112583
vt -3.44488 59.117
vt -3.44488 31.5285
f 34/79/7 36/80/7 35/81/7

v 0.065 1.50157 -0.034641
vt 0.0984252 59.117
f 36/80/7 34/79/7 37/82/7

vt 2.89812 31.5285
vn 0.5 0 0.866025
v 0.155933 0.841572 -0.087141
vt 7.03197 33.1328
vt 2.89812 59.117
f 34/83/15 38/84/15 37/85/15

vt 11.1658 33.1328
f 34/83/15 28/86/15 38/84/15

vt 5.69686 28.7297
f 32/87/15 28/86/15 34/83/15

vt 11.1658 28.7297
f 28/86/15 32/87/15 29/88/15

v 0.201865 0.841572 -0.217583
vt 7.94745 8.56627
vt 6.13908 3.43075
vt 9.71911 5.49768
f 39/89/3 38/90/3 28/91/3

v 0.110933 0.841572 -0.165083
vt 4.36743 6.49934
f 38/90/3 39/89/3 40/92/3

vt -11.1658 33.1328
vt -2.89812 31.5285
vt -7.03197 33.1328
f 39/93/4 35/94/4 40/95/4

vt -11.1658 28.7297
f 31/96/4 35/94/4 39/93/4

vt -5.69686 28.7297
f 35/94/4 31/96/4 33/97/4

vt -3.44488 33.1328
f 39/98/13 24/66/13 31/70/13

f 28/64/13 24/66/13 39/98/13

f 30/69/13 31/70/13 24/66/13

vt -12.1797 91.3386
vn -0.866025 8.91867e-017 -0.5
v 0.201865 1.4686 -0.286865
vt -13.7545 57.8187
vt -12.1797 1.10212e-016
f 24/99/16 41/100/16 30/101/16

vt -18.8727 91.3386
f 41/100/16 24/99/16 23/102/16

v 0.246865 1.4686 -0.364808
vt -17.2978 57.8187
f 41/100/16 23/102/16 42/103/16

v 0.246865 1.3686 -0.364808
vt -17.2978 53.8817
f 42/103/16 23/102/16 43/104/16

v 0.266865 0 -0.399449
vt -18.8727 1.10212e-016
f 44/105/16 43/104/16 23/102/16

v 0.201865 1.3686 -0.286865
vt -13.7545 53.8817
f 44/105/16 45/106/16 43/104/16

f 30/101/16 45/106/16 44/105/16

f 45/106/16 30/101/16 41/100/16

vt 1.23574 57.8187
vn -0.5 -1.02772e-015 0.866025
v 0.106228 1.3686 -0.342082
vt -3.112 53.8817
vt 1.23574 53.8817
f 41/107/17 46/108/17 45/109/17

v 0.054641 1.42816 -0.371865
vt -5.45717 56.2269
f 46/108/17 41/107/17 47/110/17

v 0.128253 1.4686 -0.329365
vt -2.11071 57.8187
f 47/110/17 41/107/17 48/111/17

vt 7.94745 11.2939
v 0.173253 1.4686 -0.407308
vt 6.82099 16.0357
vt 5.04934 12.9671
f 41/112/3 49/113/3 48/114/3

vt 9.71911 14.3625
f 49/113/3 41/112/3 42/115/3

vt -1.23574 57.8187
vn 0.5 2.23213e-016 -0.866025
v 0.099641 1.42816 -0.449808
vt 5.45717 56.2269
vt 2.11071 57.8187
f 42/116/18 50/117/18 49/118/18

vt -1.23574 53.8817
f 43/119/18 50/117/18 42/116/18

v 0.151228 1.3686 -0.420024
vt 3.112 53.8817
f 50/117/18 43/119/18 51/120/18

vt -7.94745 11.2939
vt -5.95385 16.5364
vt -9.71911 14.3625
f 45/121/5 51/122/5 43/123/5

vt -4.1822 13.4678
f 51/122/5 45/121/5 46/124/5

vt -13.7545 40.3006
vn -0.612372 -0.707107 -0.353553
vt -17.2978 43.6172
vt -17.2978 40.3006
f 46/125/19 50/126/19 51/127/19

vt -13.7545 43.6172
f 50/126/19 46/125/19 47/128/19

v 0.054641 2.0186 -0.371865
vt -13.7545 79.4723
vn -0.866025 -2.81155e-015 -0.5
vt -17.2978 56.2269
vt -13.7545 56.2269
f 52/129/20 50/130/20 47/131/20

v 0.099641 2.0186 -0.449808
vt -17.2978 79.4723
f 50/130/20 52/129/20 53/132/20

v 0.128253 2.0186 -0.329365
vt 3.92287 17.709
vt 2.15122 14.6404
f 54/114/3 53/133/3 52/134/3

v 0.173253 2.0186 -0.407308
f 53/133/3 54/114/3 55/113/3

vt 13.7545 79.4723
vn 0.866025 0 0.5
vt 17.2978 57.8187
vt 17.2978 79.4723
f 54/135/21 49/136/21 55/137/21

vt 13.7545 57.8187
f 49/136/21 54/135/21 48/138/21

vt -5.45717 79.4723
vt -2.11071 79.4723
f 52/139/17 48/111/17 54/140/17

f 47/110/17 48/111/17 52/139/17

vt 5.45717 79.4723
vt 2.11071 79.4723
f 49/118/18 53/141/18 55/142/18

f 53/141/18 49/118/18 50/117/18

vt -10.5065 15.7263
vt -10.5065 4.13386
vt -7.16005 9.93009
f 44/143/5 21/144/5 30/145/5

vt -17.1994 4.13386
f 21/144/5 44/143/5 20/146/5

vt -17.1994 15.7263
f 20/146/5 44/143/5 17/147/5

vt -10.5065 91.3386
vn 1.86462e-013 -6.42949e-019 -1
vt -17.1994 1.01112e-017
vt -10.5065 1.01112e-017
f 23/148/22 17/149/22 44/150/22

vt -17.1994 91.3386
f 17/149/22 23/148/22 15/151/22

vt -11.2427 70.455
vn 1.54377e-013 0.543682 -0.839291
vt -17.1994 68.1096
vt -10.5065 68.1096
f 25/152/23 15/153/23 23/154/23

v 0.418165 2.37 -0.367059
vt -16.4632 70.455
f 15/153/23 25/152/23 56/155/23

vt 11.2427 14.4512
v 0.418165 2.37 -0.137389
vt 16.4632 5.40903
vt 16.4632 14.4512
f 25/156/3 57/157/3 56/158/3

vt 11.2427 5.40903
f 25/156/3 27/159/3 57/157/3

vt 8.63249 9.93009
f 27/159/3 25/156/3 26/160/3

vt 10.5065 78.9072
vn -1.55931e-013 0.543682 0.839291
vt 16.4632 81.2526
vt 11.2427 81.2526
f 22/161/24 57/162/24 27/163/24

vt 17.1994 78.9072
f 57/162/24 22/161/24 19/164/24

vt 18.8727 69.6852
vn 0.726848 0.543682 0.419646
vt 12.916 72.0306
vt 12.1797 69.6852
f 16/165/25 57/166/25 19/167/25

v 0.484465 2.37 -0.252224
vt 18.1364 72.0306
f 57/166/25 16/165/25 58/168/25

vt 5.01969 64.2864
vn 0.726848 0.543682 -0.419646
vt -0.937008 66.6318
vt -1.67323 64.2864
f 15/169/26 58/170/26 16/171/26

vt 4.28346 66.6318
f 58/170/26 15/169/26 56/172/26

vt 19.0734 9.93009
f 56/158/3 57/157/3 58/173/3

vt 17.1994 15.7263
vt 20.5459 9.93009
f 15/174/3 19/54/3 16/175/3

f 23/52/3 19/54/3 15/174/3

f 15/37/8 10/39/8 17/42/8

vt 3.44488 70.1987
f 11/176/8 17/42/8 10/39/8

f 12/41/8 17/42/8 11/176/8

vt -20.5459 9.93009
f 20/146/5 17/147/5 18/177/5

vt -2.89812 59.117
f 36/178/4 40/95/4 35/94/4

v 0.110933 1.50157 -0.165083
vt -7.03197 59.117
f 40/95/4 36/178/4 59/179/4

vt 2.55906 1.36382
vt 0.787402 4.43241
f 37/180/3 59/92/3 36/181/3

v 0.155933 1.50157 -0.087141
f 59/92/3 37/180/3 60/90/3

vt 7.03197 59.117
f 37/85/15 38/84/15 60/182/15

vt 3.44488 33.1328
vt -0.0984252 59.117
vt -0.0984252 33.1328
f 40/183/2 60/184/2 38/185/2

vt 3.44488 59.117
f 60/184/2 40/183/2 59/186/2

