# Alias OBJ Model File
# Exported from SketchUp, (c) 2000-2012 Trimble Navigation Limited
# File units = meters

mtllib naturePack_087.mtl

g Mesh1 Group1 Model

usemtl Leafs
v 0.363467 0.944267 -1.45425
vt -41.0196 14.6574
vn -0.448765 0.440954 -0.777283
v 0.960769 0.204457 -2.2188
vt -76.435 -17.7943
v 1.26334e-015 0.204457 -1.6641
vt -32.7579 -17.7943
f 1/1/1 2/2/1 3/3/1

v 0.960769 0.954915 -1.79306
vt -68.0544 15.1244
f 2/2/1 1/1/1 4/4/1

v 0.443683 1.10754 -1.40794
vt -42.8429 21.8194
f 5/5/1 4/4/1 1/1/1

v 0.960769 1.10754 -1.70648
vt -66.35 21.8194
f 4/4/1 5/5/1 6/6/1

v 1.47785 1.10754 -1.40794
vt -22.6728 5.14003
vn 0.448765 0.440954 -0.777283
vt 2.53866 -1.5549
vt 0.834234 5.14003
f 7/7/2 4/8/2 6/9/2

v 1.55807 0.944267 -1.45425
vt -24.4962 -2.02196
f 4/8/2 7/7/2 8/10/2

v 1.47785 1.10754 -0.81086
vt 31.9236 13.4797
vn 0.89753 0.440954 7.63581e-017
vt 57.254 6.31771
vt 55.4307 13.4797
f 9/11/3 8/12/3 7/13/3

v 1.56881 0.922397 -0.758344
vt 29.8561 5.35839
f 8/12/3 9/11/3 10/14/3

v 0.960769 1.10754 -0.512321
vt 42.8429 38.4987
vn 0.448765 0.440954 0.777283
vt 68.4175 30.3774
vt 66.35 38.4987
f 11/15/4 10/16/4 9/17/4

v 0.960769 0.911165 -0.400916
vt 40.6499 29.8847
f 10/16/4 11/15/4 12/18/4

vt 22.6728 55.178
vn -0.448765 0.440954 0.777283
v 0.352722 0.922397 -0.758344
vt -2.9018 47.0567
vt 24.8658 46.564
f 11/19/5 13/20/5 12/21/5

v 0.443683 1.10754 -0.81086
vt -0.834234 55.178
f 13/20/5 11/19/5 14/22/5

vt -31.9236 46.8384
vn -0.89753 0.440954 -1.7247e-015
vt -57.254 39.6764
vt -29.8561 38.7171
f 14/23/6 1/24/6 13/25/6

vt -55.4307 46.8384
f 1/24/6 14/23/6 5/26/6

vt -65.5157 7.22466
vn -0.89753 0.440954 -1.07764e-015
f 3/27/7 13/25/7 1/24/7

v 7.21911e-016 0.204457 -0.5547
vt -21.8386 7.22466
f 13/25/7 3/27/7 15/28/7

vt -4.9738e-014 65.5157
vn 0 -1 -0
v 0.960769 0.204457 -0
vt -37.8255 0
vt -2.84217e-014 21.8386
f 3/29/8 16/30/8 15/31/8

vt -37.8255 87.3543
f 16/30/8 3/29/8 2/32/8

vt -76.435 8.0495
vn -0.5 2.42664e-014 -0.866025
v 0.480384 0 -1.94145
vt -54.5965 -1.37683e-012
vt -32.7579 8.0495
f 2/33/9 17/34/9 3/35/9

v 1.92154 0.204457 -1.6641
vt -75.6511 65.5157
f 16/30/8 2/32/8 18/36/8

vt -32.7579 -34.4737
vt 10.9193 -34.4737
f 4/8/2 18/37/2 2/38/2

f 18/37/2 4/8/2 8/10/2

vt -37.8255 71.7391
vn 1.0737e-018 -0.999507 -0.0314108
v 0.960769 0.963343 -2.06125
vt -37.8255 82.303
vt -61.3413 58.3935
f 4/39/10 19/40/10 8/41/10

vt -14.3097 58.3935
f 1/42/10 19/40/10 4/39/10

v 0.172938 0.949056 -1.60662
vt -6.8086 64.3954
f 1/42/10 20/43/10 19/40/10

vt -13.8867 30.982
f 20/43/10 1/42/10 13/44/10

v 0.172938 0.920481 -0.697365
vt -6.8086 28.5801
f 13/44/10 21/45/10 20/43/10

v 0.960769 0.906194 -0.242735
vt -37.8255 10.6724
f 21/45/10 13/44/10 22/46/10

vt -37.8255 16.9031
f 22/46/10 13/44/10 12/47/10

vt -10.9193 15.5643
f 15/48/5 12/21/5 13/20/5

vt 32.7579 15.5643
f 12/21/5 15/48/5 16/49/5

vt -10.9193 8.0495
vn -0.5 -3.13788e-014 0.866025
v 0.480384 0 -0.27735
vt 10.9193 -5.9346e-013
vt 32.7579 8.0495
f 15/50/11 23/51/11 16/52/11

vt 32.7579 -1.115
f 16/53/4 10/16/4 12/18/4

v 1.92154 0.204457 -0.5547
vt 76.435 -1.115
f 10/16/4 16/53/4 24/54/4

vt -75.6511 21.8386
f 16/30/8 18/36/8 24/55/8

vt 65.5157 -26.134
vn 0.89753 0.440954 1.2301e-017
vt 21.8386 -26.134
f 18/56/12 10/14/12 24/57/12

f 10/14/12 18/56/12 8/12/12

v 1.7486 0.949056 -1.60662
vt -68.8425 64.3954
vt -61.7644 30.982
f 8/41/10 25/58/10 10/59/10

f 8/41/10 19/40/10 25/58/10

vt 8.47064 -4.34768
vn 0.456534 0.432444 -0.77754
v 1.41956 1.67944 -1.3936
vt -20.4144 26.9199
vt -27.3392 -4.97152
f 19/60/13 26/61/13 25/62/13

v 0.960769 1.70277 -1.65001
vt 0.272773 27.9388
f 26/61/13 19/60/13 27/63/13

vt -73.7078 12.2167
vn -0.456534 0.432444 -0.77754
v 0.50198 1.67944 -1.3936
vt -44.8227 43.4843
vt -65.5099 44.5031
f 19/64/14 28/65/14 27/66/14

vt -37.8979 11.5928
f 28/65/14 19/64/14 20/67/14

vt -73.3447 36.516
vn -0.5 0.0272025 -0.865598
v 0.566853 0.77187 -1.83973
vt -55.5534 28.9749
vt -37.5339 35.9533
f 19/68/15 29/69/15 20/70/15

vt -63.1512 37.2562
vn -0.913068 0.407606 0.0128095
v 0.487704 1.63059 -0.856869
vt -33.4623 66.6401
vt -54.5837 68.7461
f 20/71/16 30/72/16 28/73/16

vt -27.3571 36.0242
f 30/72/16 20/71/16 21/74/16

vt -63.2529 37.3644
vn -1 4.90316e-015 -2.4289e-016
v 0.172938 0.750439 -1.15779
vt -45.5822 29.5448
vt -27.4553 36.2394
f 20/75/17 31/76/17 21/77/17

vt -7.64836 43.9036
vn -0.456534 0.382769 0.803159
v 0.960769 1.60501 -0.575777
vt 21.6823 73.0752
vt 0.0219287 74.1654
f 21/78/18 32/79/18 30/80/18

vt 28.1617 43.2948
f 32/79/18 21/78/18 22/81/18

vt -7.83705 35.4866
vn -0.5 -0.0272025 0.865598
v 0.566853 0.729008 -0.475843
vt 9.9543 27.9455
vt 27.9738 34.9239
f 21/82/19 33/83/19 22/84/19

v 1.7486 0.920481 -0.697365
vt 73.4169 29.5941
vn 0.456534 0.382769 0.803159
vt 44.0862 58.7657
vt 37.6068 28.9852
f 34/85/20 32/86/20 22/87/20

v 1.43383 1.63059 -0.856869
vt 65.7466 59.8558
f 32/86/20 34/85/20 35/88/20

vt 64.2124 6.42338
vn 0.913068 0.407606 0.0128095
vt 34.5235 35.8073
vt 28.4183 5.19141
f 25/89/21 35/90/21 34/91/21

vt 55.6449 37.9133
f 35/90/21 25/89/21 26/92/21

v 1.38478 1.74126 -0.881726
vt 35.475 40.5786
f 26/92/21 36/93/21 35/90/21

v 1.38478 1.75664 -1.37109
vt 54.7394 41.2416
f 36/93/21 26/92/21 37/94/21

vt -19.6825 30.2907
f 27/63/13 37/95/13 26/61/13

v 0.960769 1.76433 -1.61577
vt -0.409648 30.6264
f 37/95/13 27/63/13 38/96/13

v 0.536758 1.75664 -1.37109
vt -45.5546 46.855
vt -64.8275 47.1908
f 27/66/14 39/97/14 38/98/14

f 39/97/14 27/66/14 28/65/14

vt -19.763 60.6331
vn 3.60721e-017 -0.995884 -0.0906326
v 0.960769 1.71725 -1.80904
vt -37.8255 77.0562
vt -37.8255 70.7693
f 28/99/22 40/100/22 27/101/22

v 0.369896 1.68633 -1.4693
vt -14.5628 63.6255
f 28/99/22 41/102/22 40/100/22

vt -19.201 39.4145
f 41/102/22 28/99/22 30/103/22

v 0.536758 1.74126 -0.881726
vt -34.4138 71.4114
f 42/104/16 28/73/16 30/72/16

vt -53.6782 72.0744
f 28/73/16 42/104/16 39/105/16

v 0.960769 1.73357 -0.637045
vt 20.4903 78.5538
vt 1.21729 78.8815
f 30/80/18 43/106/18 42/107/18

f 43/106/18 30/80/18 32/79/18

v 0.960769 1.59357 -0.450089
vt -37.8255 23.3333
vt -37.8255 28.3021
f 44/108/22 30/103/22 32/109/22

v 0.369896 1.62449 -0.789826
vt -14.5628 36.7641
f 45/110/22 30/103/22 44/108/22

f 30/103/22 45/110/22 41/102/22

vt -57.8464 66.3909
vn -1 5.24578e-015 -5.38252e-017
v 0.369896 1.51766 -1.1421
vt -44.9645 59.7505
vt -31.0955 63.9563
f 41/111/23 46/112/23 45/113/23

v 0.623075 2.20227 -0.884021
vt -33.7833 89.7571
vn -0.913068 0.406129 0.0369607
vt -57.2101 67.5288
vt -30.481 64.8646
f 47/114/24 41/115/24 45/116/24

v 0.630892 2.25463 -1.26627
vt -48.8077 92.013
f 41/115/24 47/114/24 48/117/24

v 0.642761 2.24719 -0.891345
vt -34.0401 91.6925
f 49/118/24 48/117/24 47/114/24

v 0.642761 2.28047 -1.25704
vt -48.4257 93.1264
f 48/117/24 49/118/24 50/119/24

vt -47.3393 64.9527
vn -0.456534 0.477796 -0.750525
v 0.960769 2.27991 -1.45083
vt -62.0009 64.9275
vt -47.129 63.7945
f 50/120/25 51/121/25 48/122/25

v 0.960769 2.29711 -1.43988
vt -61.7769 65.6984
f 51/121/25 50/120/25 52/123/25

v 1.27878 2.28047 -1.25704
vt -17.2935 46.168
vn 0.456534 0.477796 -0.750525
vt -2.63188 46.1429
vt -2.85593 46.9138
f 53/124/26 51/125/26 52/126/26

v 1.29064 2.25463 -1.26627
vt -17.5038 45.0098
f 51/125/26 53/124/26 54/127/26

v 1.27878 2.24719 -0.891345
vt 37.0999 60.9936
vn 0.913068 0.406129 0.0369607
vt 51.8676 61.314
vt 51.4855 62.4274
f 55/128/27 54/129/27 53/130/27

v 1.29846 2.20227 -0.884021
vt 36.8432 59.0581
f 54/129/27 55/128/27 56/131/27

v 0.960769 2.23055 -0.708499
vt 46.6035 84.7924
vn 0.456534 0.334462 0.824446
vt 61.5819 83.6109
vt 61.0436 85.4876
f 57/132/28 56/133/28 55/134/28

v 0.960769 2.17514 -0.686022
vt 46.1748 82.4778
f 56/133/28 57/132/28 58/135/28

vt 19.5782 97.0498
vn -0.456534 0.334462 0.824446
vt 4.59981 95.8682
vt 20.0069 94.7351
f 57/136/29 47/137/29 58/138/29

vt 5.13813 97.7449
f 47/137/29 57/136/29 49/139/29

v 0.960769 2.16091 -0.582121
vt -37.8255 34.2521
vn -7.88744e-019 -0.990748 -0.135716
vt -24.5305 46.249
vt -37.8255 38.3809
f 59/140/30 47/141/30 58/142/30

v 0.505797 2.19656 -0.842369
vt -19.9133 44.5938
f 60/143/30 47/141/30 59/140/30

v 0.505797 2.26786 -1.36286
vt -19.9133 65.2771
f 47/141/30 60/143/30 61/144/30

v 0.702737 2.86729 -0.865256
vt -32.9203 116.484
vn -0.958416 0.282734 0.0387297
vt -52.8083 91.8809
vt -32.333 88.9545
f 62/145/31 61/146/31 60/147/31

v 0.707039 2.9217 -1.15603
vt -44.3518 118.718
f 61/146/31 62/145/31 63/148/31

v 0.715903 2.91213 -0.866786
vt -32.9596 118.325
f 64/149/31 63/148/31 62/145/31

v 0.715903 2.9505 -1.14692
vt -43.9794 119.9
f 63/148/31 64/149/31 65/150/31

vt -47.603 97.2795
vn -0.479208 0.39538 -0.783604
v 0.960769 2.94824 -1.29781
vt -58.9267 97.1825
vt -47.4925 96.0452
f 65/151/32 66/152/32 63/153/32

v 0.960769 2.96969 -1.28698
vt -58.7044 98.1019
f 66/152/32 65/151/32 67/154/32

v 1.20563 2.9505 -1.14692
vt -16.9362 81.6744
vn 0.479208 0.39538 -0.783604
vt -5.61255 81.5774
vt -5.83486 82.4968
f 68/155/33 66/156/33 67/157/33

v 1.2145 2.9217 -1.15603
vt -17.0468 80.4401
f 66/156/33 68/155/33 69/158/33

v 1.20563 2.91213 -0.866786
vt 36.0142 96.953
vn 0.958416 0.282734 0.0387297
vt 47.4064 97.346
vt 47.0339 98.528
f 70/159/34 69/160/34 68/161/34

v 1.2188 2.86729 -0.865256
vt 35.9749 95.1125
f 69/160/34 70/159/34 71/162/34

v 0.960769 2.89294 -0.726721
vt 46.9652 113.359
vn 0.479208 0.170088 0.861063
vt 58.4941 112.334
vt 58.0705 114.126
f 72/163/35 71/164/35 70/165/35

v 0.960769 2.83938 -0.716141
vt 46.7626 111.219
f 71/164/35 72/163/35 73/166/35

vt 19.1384 119.617
vn -0.479208 0.170088 0.861063
vt 7.60941 118.592
vt 19.3409 117.477
f 72/167/36 62/168/36 73/169/36

vt 8.03305 120.383
f 62/168/36 72/167/36 64/170/36

vt 1.27259 91.7947
f 60/171/36 73/169/36 62/168/36

vt 21.9068 90.3704
f 73/169/36 60/171/36 59/172/36

vt 0.507278 81.3332
vn -0.5 -0.117533 0.858013
v 0.733283 2.02046 -0.733926
vt 10.395 74.3517
vt 21.1423 79.9199
f 60/173/37 74/174/37 59/175/37

v 1.41574 2.19656 -0.842369
vt 64.831 85.5374
vt 44.1967 84.1131
f 75/176/35 73/166/35 59/177/35

f 73/166/35 75/176/35 71/164/35

v 1.41574 2.26786 -1.36286
vt 55.8629 70.5092
vt 35.3876 67.5828
f 76/178/34 71/162/34 75/179/34

f 71/162/34 76/178/34 69/160/34

v 0.960769 2.30351 -1.62311
vt 1.06929 53.9427
vt -19.5575 52.4147
f 77/180/33 69/158/33 76/181/33

f 69/158/33 77/180/33 66/156/33

vt -65.6085 69.5478
f 77/182/32 63/153/32 66/152/32

vt -44.9817 68.0198
f 63/153/32 77/182/32 61/183/32

vt -24.8383 61.4387
vt -37.8255 75.6188
f 48/184/30 61/144/30 77/185/30

f 61/144/30 48/184/30 47/141/30

vt -64.8553 85.81
vn -0.5 0.117533 -0.858013
v 0.733283 2.12741 -1.51467
vt -54.9676 78.8285
vt -44.2204 84.3967
f 77/186/38 78/187/38 61/188/38

vt -37.8255 68.7729
f 48/184/30 77/185/30 51/189/30

vt -50.8128 61.4387
f 51/189/30 77/185/30 54/190/30

vt -55.7378 65.2771
f 54/190/30 77/185/30 76/191/30

vt -0.507278 81.3332
vn 0.5 0.117533 -0.858013
vt -21.1423 79.9199
v 1.18825 2.12741 -1.51467
vt -10.395 74.3517
f 77/192/39 76/193/39 79/194/39

vt -51.1205 46.249
f 54/190/30 76/191/30 56/195/30

vt -55.7378 44.5938
f 75/196/30 56/195/30 76/191/30

f 59/140/30 56/195/30 75/196/30

f 59/140/30 58/142/30 56/195/30

v 1.55164 1.62449 -0.789826
vt 68.5054 59.4737
f 58/135/28 80/197/28 56/133/28

vt 41.675 58.182
f 80/197/28 58/135/28 44/198/28

vt -2.32371 71.731
vt 24.5067 70.4394
f 58/138/29 45/199/29 44/200/29

f 45/199/29 58/138/29 47/137/29

vt -2.99712 61.0742
vn -0.5 -0.0784901 0.862461
v 0.665332 1.47129 -0.632493
vt 10.1722 55.0238
vt 23.8366 59.8532
f 45/201/40 81/202/40 44/203/40

vt 68.4451 64.0523
vn 0.5 -0.0784901 0.862461
vt 41.6115 62.8313
v 1.2562 1.47129 -0.632493
vt 55.2758 58.002
f 80/204/41 44/205/41 82/206/41

vt -56.4501 39.4145
vt -61.0882 36.7641
f 44/108/22 35/207/22 80/208/22

f 44/108/22 32/109/22 35/207/22

vt 45.2782 64.2442
f 35/88/20 43/209/20 32/86/20

vt 64.5512 64.5719
f 43/209/20 35/88/20 36/210/20

v 1.55164 1.68633 -1.4693
vt -61.0882 63.6255
f 80/208/22 35/207/22 83/211/22

vt -55.8881 60.6331
f 26/212/22 83/211/22 35/207/22

f 26/212/22 40/100/22 83/211/22

f 27/101/22 40/100/22 26/212/22

vt 4.69701 20.9262
vt -22.1287 19.5405
f 40/213/26 54/127/26 83/214/26

f 54/127/26 40/213/26 51/125/26

vt -69.3298 39.7108
f 40/215/25 48/122/25 51/121/25

vt -42.5041 38.3252
f 48/122/25 40/215/25 41/216/25

vt -68.4451 64.0523
vn -0.5 0.0784901 -0.862461
v 0.665332 1.56404 -1.6517
vt -55.2758 58.002
vt -41.6115 62.8313
f 40/217/42 84/218/42 41/219/42

vt 60.2699 36.8298
f 56/131/27 83/220/27 54/129/27

vt 33.5409 34.1657
f 83/220/27 56/131/27 80/221/27

vt 57.8464 66.3909
vn 1 -2.59892e-015 -2.3652e-016
vt 31.0955 63.9563
v 1.55164 1.51766 -1.1421
vt 44.9645 59.7505
f 83/222/43 80/223/43 85/224/43

vt 2.99712 61.0742
vn 0.5 0.0784901 -0.862461
vt -23.8366 59.8532
v 1.2562 1.56404 -1.6517
vt -10.1722 55.0238
f 40/225/44 83/226/44 86/227/44

vt 64.8553 85.81
vn 0.5 -0.117533 0.858013
vt 44.2204 84.3967
v 1.18825 2.02046 -0.733926
vt 54.9676 78.8285
f 75/228/45 59/229/45 87/230/45

vt 53.6561 89.2858
vn 1 -2.23854e-015 -3.06642e-016
vt 33.1641 86.4788
v 1.41574 2.07393 -1.1243
vt 44.2637 81.651
f 76/231/46 75/232/46 88/233/46

vt -27.8362 65.8957
vn 4.07126e-018 -0.982935 -0.183951
v 0.980769 2.96675 -1.39671
vt -38.6129 75.536
vt -37.8255 71.5744
f 63/234/47 89/235/47 66/236/47

v 0.657738 2.93244 -1.21339
vt -25.8952 68.1934
f 63/234/47 90/237/47 89/235/47

vt -27.6668 54.2493
f 90/237/47 63/234/47 62/238/47

v 0.657738 2.86382 -0.846754
vt -25.8952 53.5082
f 62/238/47 91/239/47 90/237/47

v 0.980769 2.82952 -0.663436
vt -38.6129 46.1657
f 91/239/47 62/238/47 92/240/47

vt -37.8255 48.2767
f 92/240/47 62/238/47 73/241/47

vt -47.9843 54.2493
f 92/240/47 73/241/47 71/242/47

v 1.3038 2.86382 -0.846754
vt -51.3307 53.5082
f 92/240/47 71/242/47 93/243/47

v 1.3038 2.93244 -1.21339
vt -51.3307 68.1934
f 93/243/47 71/242/47 94/244/47

vt -47.8149 65.8957
f 69/245/47 94/244/47 71/242/47

f 69/245/47 89/235/47 94/244/47

f 66/236/47 89/235/47 69/245/47

vt -3.40185 75.2655
vn 0.477982 0.440765 -0.759776
v 1.0364 3.76017 -0.901424
vt -15.6392 110.066
vt -18.0097 73.7608
f 89/246/48 95/247/48 94/248/48

v 0.980769 3.76608 -0.932996
vt -13.1234 110.325
f 95/247/48 89/246/48 96/249/48

vt -61.9645 93.3909
vn -0.477982 0.440765 -0.759776
v 0.925135 3.76017 -0.901424
vt -49.7272 128.191
vt -52.243 128.45
f 89/250/49 97/251/49 96/252/49

vt -47.3567 91.8862
f 97/251/49 89/250/49 90/253/49

vt -61.1443 110.871
vn -0.5 0.159307 -0.851247
v 0.819254 2.8381 -1.32592
vt -54.2497 105.741
vt -46.523 109.503
f 89/254/50 98/255/50 90/256/50

vt -31.8237 115.956
vn -0.955965 0.288473 0.0539863
vt -33.3791 152.812
vt -46.2353 118.777
f 91/257/51 97/258/51 90/259/51

v 0.925135 3.74836 -0.83828
vt -30.897 152.327
f 97/258/51 91/257/51 99/260/51

vt 6.5976 117.377
vn -0.477982 0.136182 0.867748
v 0.980769 3.74245 -0.806708
vt 18.4978 152.293
vt 15.9796 152.528
f 91/261/52 100/262/52 99/263/52

vt 21.2193 116.013
f 100/262/52 91/261/52 92/264/52

v 0.813286 2.73993 -0.778575
vt 12.0842 99.6998
vn -0.5 -0.159307 0.851247
vt 20.0656 103.272
vt 5.44436 104.64
f 101/265/53 92/266/53 91/267/53

v 0.825688 2.73894 -0.771477
vt 12.6468 99.6601
f 92/266/53 101/265/53 102/268/53

v 0.819254 2.73518 -0.77596
vt 12.339 99.5103
f 101/265/53 103/269/53 102/268/53

vt 61.0452 112.302
vn 0.477982 0.136182 0.867748
vt 49.145 147.219
vt 46.4235 110.939
f 93/270/54 100/271/54 92/272/54

v 1.0364 3.74836 -0.83828
vt 51.6632 147.454
f 100/271/54 93/270/54 104/273/54

vt 36.1779 93.714
vn 0.955965 0.288473 0.0539863
vt 37.7333 130.57
vt 35.2513 130.084
f 93/274/55 95/275/55 104/276/55

vt 50.5895 96.5353
f 95/275/55 93/274/55 94/277/55

vt 47.7714 115.45
vn 1 0 -0
vt 33.3368 112.749
v 1.3038 2.78664 -1.05094
vt 41.3755 109.71
f 94/278/56 93/279/56 105/280/56

vt 38.6129 63.3799
vn 0 0.982935 0.183951
vt 40.8032 59.5862
vt 40.8032 62.1154
f 96/281/57 104/282/57 95/283/57

vt 38.6129 58.3217
f 96/281/57 100/284/57 104/282/57

vt 36.4226 62.1154
f 97/285/57 100/284/57 96/281/57

vt 36.4226 59.5862
f 100/284/57 97/285/57 99/286/57

vt 61.1443 110.871
vn 0.5 -0.159307 0.851247
vt 46.523 109.503
v 1.14228 2.73518 -0.77596
vt 54.2497 105.741
f 93/287/58 92/288/58 106/289/58

vt -47.7714 115.45
vn -1 1.65301e-015 -1.82899e-016
v 0.657738 2.78664 -1.05094
vt -41.3755 109.71
vt -33.3368 112.749
f 90/290/59 107/291/59 91/292/59

vt -5.44436 104.64
vn 0.5 0.159307 -0.851247
vt -20.0656 103.272
v 1.14228 2.8381 -1.32592
vt -12.339 99.5103
f 89/293/60 94/294/60 108/295/60

vt -53.6561 89.2858
vn -1 2.8448e-015 4.29464e-017
v 0.505797 2.07393 -1.1243
vt -44.2637 81.651
vt -33.1641 86.4788
f 61/296/61 109/297/61 60/298/61

vt -68.8425 28.5801
f 34/299/10 10/59/10 25/58/10

f 34/299/10 12/47/10 10/59/10

f 22/46/10 12/47/10 34/299/10

vt 73.3447 36.516
vn 0.5 -0.0272025 0.865598
vt 37.5339 35.9533
v 1.35468 0.729008 -0.475843
vt 55.5534 28.9749
f 34/300/62 22/301/62 110/302/62

vt 63.2529 37.3644
vn 1 -2.93442e-015 -9.22178e-017
vt 27.4553 36.2394
v 1.7486 0.750439 -1.15779
vt 45.5822 29.5448
f 25/303/63 34/304/63 111/305/63

vt 7.83705 35.4866
vn 0.5 0.0272025 -0.865598
vt -27.9738 34.9239
v 1.35468 0.77187 -1.83973
vt -9.9543 27.9455
f 19/306/64 25/307/64 112/308/64

vt 65.5157 8.0495
vn 1 -1.76543e-015 3.64772e-033
vt 21.8386 8.0495
v 1.92154 0 -1.1094
vt 43.6772 1.33557e-013
f 18/309/65 24/310/65 113/311/65

vn 0.5 -4.18634e-014 0.866025
v 1.44115 0 -0.27735
vt 54.5965 7.91752e-013
vt 76.435 8.0495
f 16/52/66 114/312/66 24/313/66

vn 0.5 1.85804e-014 -0.866025
v 1.44115 0 -1.94145
vt -10.9193 -1.75703e-012
vt 10.9193 8.0495
f 18/35/67 115/314/67 2/315/67

vt -65.5157 8.0495
vn -1 4.85494e-015 -4.88042e-016
v 0 0 -1.1094
vt -43.6772 -1.03489e-028
vt -21.8386 8.0495
f 3/316/68 116/317/68 15/318/68

