# Alias OBJ Model File
# Exported from SketchUp, (c) 2000-2012 Trimble Navigation Limited
# File units = meters

mtllib naturePack_082.mtl

g Mesh1 Trunk Model

usemtl Wood
v 0.80369 0 -0.80369
vt 31.6413 -12.8233
vn 0.914197 0.40527 6.74643e-018
v 0.701729 0.23 -0.101961
vt 4.0142 -2.91828
vn 0.966384 0.257103 3.72362e-018
v 0.80369 0 -0
vt 2.33501e-016 -12.8233
f 1/1/1 2/2/2 3/3/1

v 0.701729 0.23 -0.701729
vt 27.6271 -2.91828
f 2/2/2 1/1/1 4/4/2

vt -31.6413 -12.8233
vn 6.53637e-018 0.40527 -0.914197
v 0.101961 0.23 -0.701729
vt -4.0142 -2.91828
vn 3.78341e-018 0.257103 -0.966384
vt -27.6271 -2.91828
f 1/5/3 5/6/4 4/7/4

v 0 0 -0.80369
vt 2.26231e-016 -12.8233
f 5/6/4 1/5/3 6/8/3

vt -31.6413 31.6413
vn 0 -1 -0
v 0 0 -0
vt 0 0
vt 0 31.6413
f 1/9/5 7/10/5 6/11/5

vt -31.6413 0
f 7/10/5 1/9/5 3/12/5

vt 27.6271 9.905
vn 4.92231e-018 0.257103 0.966384
vn 2.36906e-018 0.40527 0.914197
vt 31.6413 -3.32304e-017
f 2/13/6 7/10/7 3/14/7

v 0.101961 0.23 -0.101961
vt 4.0142 9.905
f 7/10/7 2/13/6 8/15/6

v 0.639848 0.83 -0.163841
vt 25.1909 33.1665
vn 7.35408e-018 0.102591 0.994724
vt 4.0142 9.41916
vt 27.6271 9.41916
f 9/16/8 8/17/6 2/18/6

v 0.163841 0.83 -0.163841
vt 6.45045 33.1665
f 8/17/6 9/16/8 10/19/8

usemtl Light_Wood
vt 25.1909 6.45045
vn 0 1 -0
v 0.163841 0.83 -0.639848
vt 6.45045 25.1909
vt 6.45045 6.45045
f 9/20/9 11/21/9 10/22/9

v 0.639848 0.83 -0.639848
vt 25.1909 25.1909
f 11/21/9 9/20/9 12/23/9

usemtl Wood
vt 6.45045 29.9204
vn 0.994724 0.102591 6.0893e-019
vt 27.6271 6.17306
vt 25.1909 29.9204
f 9/24/10 4/25/2 12/26/10

vt 4.0142 6.17306
f 4/25/2 9/24/10 2/27/2

vt -27.6271 6.17306
vt -6.45045 29.9204
vn 9.37084e-019 0.102591 -0.994724
vt -25.1909 29.9204
f 4/28/4 11/29/11 12/30/11

vt -4.0142 6.17306
f 11/29/11 4/28/4 5/31/4

vt -27.6271 9.41916
vn -0.966384 0.257103 -1.39544e-018
vt -6.45045 33.1665
vn -0.994724 0.102591 -5.80807e-018
vt -25.1909 33.1665
f 5/32/12 10/33/13 11/34/13

vt -4.0142 9.41916
f 10/33/13 5/32/12 8/35/12

vt -31.6413 4.28047e-017
vn -0.914197 0.40527 3.05163e-018
vt -4.0142 9.905
vt -27.6271 9.905
f 6/36/14 8/37/12 5/38/12

f 8/37/12 6/36/14 7/10/14

