# Alias OBJ Model File
# Exported from SketchUp, (c) 2000-2012 Trimble Navigation Limited
# File units = meters

mtllib naturePack_140.mtl

g Mesh1 Oak_Dark Model

usemtl Green_leafs
v 0.788083 5.08102 -1.82
vt 8.95669 200.04
vn 0.49632 0.121107 -0.859651
v 1.57617 4.06705 -1.365
vt -26.8701 160.12
vn 0.5 0 -0.866025
v 0.788083 4.06705 -1.82
vt 8.95669 160.12
f 1/1/1 2/2/2 3/3/2

v 1.57617 5.08102 -1.365
vt -26.8701 200.04
f 2/2/2 1/1/1 4/4/1

v 0.788083 6.4173 -1.4378
vt 1.43307 229.722
vn 0.485333 0.240432 -0.840621
vt -26.8701 175.523
vt 8.95669 175.523
f 5/5/3 4/6/1 1/7/1

v 1.24517 6.4173 -1.1739
vt -19.3465 229.722
f 4/6/1 5/5/3 6/8/3

vt -19.3465 97.5556
vn 0.295998 0.805941 -0.512684
vt 1.43307 97.5556
v 0.788083 6.75305 -0.91
vt -8.95669 119.884
f 6/9/4 5/10/4 7/11/4

vt -55.1732 122.561
vn -0.295998 0.805941 -0.512684
v 0.330995 6.4173 -1.1739
vt -34.3937 122.561
vt -44.7835 144.89
f 5/12/5 8/13/5 7/14/5

vt -62.6969 182.982
vn -0.49632 0.121107 -0.859651
vt -34.3937 237.182
vn -0.485333 0.240432 -0.840621
vt -55.1732 237.182
f 1/15/6 8/16/7 5/17/7

v 0 5.08102 -1.365
vt -26.8701 182.982
f 8/16/7 1/15/6 9/18/6

vt -62.6969 160.12
vn -0.5 0 -0.866025
vt -62.6969 200.04
f 3/19/8 9/4/6 1/20/6

v 0 4.06705 -1.365
f 9/4/6 3/19/8 10/2/8

vt -62.6969 122.316
vn -0.257349 -0.857372 -0.445741
v 0.346757 3.85889 -1.1648
vt -34.752 106.393
vt -26.8701 122.316
f 3/21/9 11/22/9 10/23/9

v 0.788083 3.85889 -1.4196
vt -54.815 106.393
f 11/22/9 3/21/9 12/24/9

vt 8.95669 148.917
vn 0.257349 -0.857372 -0.445741
v 1.22941 3.85889 -1.1648
vt -18.9882 132.995
vt 1.0748 132.995
f 3/25/10 13/26/10 12/27/10

vt -26.8701 148.917
f 13/26/10 3/25/10 2/28/10

vt 53.7402 135.617
vn 0.514698 -0.857372 1.92334e-018
v 1.22941 3.85889 -0.6552
vt 25.7953 119.694
vt 45.8583 119.694
f 2/29/11 14/30/11 13/31/11

v 1.57617 4.06705 -0.455
vt 17.9134 135.617
f 14/30/11 2/29/11 15/32/11

vt 53.7402 160.12
vn 1 0 -0
v 1.57617 5.08102 -0.455
vt 17.9134 200.04
vn 0.992639 0.121107 2.77915e-018
vt 17.9134 160.12
f 2/33/12 16/34/13 15/35/12

vt 53.7402 200.04
f 16/34/13 2/33/12 4/36/13

vt 53.7402 179.252
v 1.24517 6.4173 -0.6461
vt 25.437 233.452
vn 0.970666 0.240432 5.51739e-018
vt 17.9134 179.252
f 4/37/13 17/38/14 16/39/13

vt 46.2165 233.452
f 17/38/14 4/37/13 6/40/14

vt 46.2165 110.059
vn 0.591996 0.805941 -2.13869e-017
vt 35.8268 132.387
vt 25.437 110.059
f 6/41/15 7/42/15 17/43/15

vt 55.1732 147.567
vn 0.295998 0.805941 0.512684
vt 44.7835 169.896
v 0.788083 6.4173 -0.3822
vt 34.3937 147.567
f 17/44/16 7/45/16 18/46/16

vt 19.3465 172.573
vn -0.295998 0.805941 0.512684
vt 8.95669 194.902
v 0.330995 6.4173 -0.6461
vt -1.43307 172.573
f 18/47/17 7/48/17 19/49/17

vt -35.8268 182.399
vn -0.591996 0.805941 2.66684e-018
vt -46.2165 160.07
vt -25.437 160.07
f 7/50/18 8/51/18 19/52/18

vt -53.7402 194.172
vn -0.992639 0.121107 -1.53586e-015
vt -25.437 248.372
vn -0.970666 0.240432 -1.28619e-015
vt -46.2165 248.372
f 9/53/19 19/54/20 8/55/20

v 0 5.08102 -0.455
vt -17.9134 194.172
f 19/54/20 9/53/19 20/56/19

vt -53.7402 200.04
v 0 4.06705 -0.455
vt -17.9134 160.12
vn -1 0 -1.76291e-015
vt -17.9134 200.04
f 9/57/19 21/58/21 20/59/19

vt -53.7402 160.12
f 21/58/21 9/57/19 10/60/21

vt -45.8583 66.4906
vn -0.514698 -0.857372 -6.86248e-016
vt -17.9134 82.4135
vt -53.7402 82.4135
f 11/61/22 21/62/22 10/63/22

v 0.346757 3.85889 -0.6552
vt -25.7953 66.4906
f 21/62/22 11/61/22 22/64/22

vt -31.0269 55.8898
vn 0 -1 -0
vt -13.6518 25.7953
vt -13.6518 45.8583
f 12/65/23 22/66/23 11/67/23

v 0.673827 3.85889 -1.02426
vt -26.5286 40.325
f 22/66/23 12/65/23 23/68/23

v 0.902339 3.85889 -1.02426
vt -35.5252 40.325
f 23/68/23 12/65/23 24/69/23

vt -48.402 45.8583
f 24/69/23 12/65/23 13/70/23

v 0.902339 3.85889 -0.795744
vt -35.5252 31.3285
f 24/69/23 13/70/23 25/71/23

vt -48.402 25.7953
f 14/72/23 25/71/23 13/70/23

v 0.788083 3.85889 -0.4004
vt -31.0269 15.7638
f 26/73/23 25/71/23 14/72/23

v 0.673827 3.85889 -0.795744
vt -26.5286 31.3285
f 26/73/23 27/74/23 25/71/23

f 22/66/23 27/74/23 26/73/23

f 27/74/23 22/66/23 23/68/23

usemtl Wood
v 0.608153 0 -1.08993
vt -42.9106 0.407428
vn -0.999855 0.0170166 -9.23194e-018
vt -31.3285 152.354
vt -40.325 152.354
f 28/75/24 27/76/24 23/77/24

v 0.608153 0 -0.73007
vt -28.7429 0.407428
f 27/76/24 28/75/24 29/78/24

v 0.968014 0 -1.08993
vt -38.1108 42.9106
vt -23.943 28.7429
vt -23.943 42.9106
f 30/79/23 29/80/23 28/81/23

v 0.968014 0 -0.73007
vt -38.1108 28.7429
f 29/80/23 30/79/23 31/82/23

vt 42.9106 -0.648515
vn 0.999855 0.0170166 -9.23194e-018
vt 31.3285 151.298
vt 28.7429 -0.648515
f 30/83/25 25/84/25 31/85/25

vt 40.325 151.298
f 25/84/25 30/83/25 24/86/25

vt -38.1108 -0.730193
vn 1.73636e-018 0.0170166 -0.999855
vt -26.5286 151.217
vt -35.5252 151.217
f 30/87/26 23/88/26 24/89/26

vt -23.943 -0.730193
f 23/88/26 30/87/26 28/90/26

vt 35.5252 152.436
vn 1.73636e-018 0.0170166 0.999855
vt 23.943 0.489106
vt 38.1108 0.489106
f 25/91/27 29/92/27 31/93/27

vt 26.5286 152.436
f 29/92/27 25/91/27 27/94/27

usemtl Green_leafs
v 0.788083 4.06705 -0
vt 26.8701 69.1127
vn -0.257349 -0.857372 0.445741
vt -1.0748 53.1898
vt 18.9882 53.1898
f 32/95/28 22/96/28 26/97/28

vt -8.95669 69.1127
f 22/96/28 32/95/28 21/98/28

v 0.788083 5.08102 -0
vt 26.8701 200.04
vn -0.49632 0.121107 0.859651
vt -8.95669 160.12
vn -0.5 0 0.866025
vt 26.8701 160.12
f 33/99/29 21/100/30 32/101/30

vt -8.95669 200.04
f 21/100/30 33/99/29 20/102/29

vt 19.3465 252.102
vn -0.485333 0.240432 0.840621
vt -8.95669 197.902
vt 26.8701 197.902
f 18/103/31 20/104/29 33/105/29

vt -1.43307 252.102
f 20/104/29 18/103/31 19/106/31

vt 26.8701 190.442
vn 0.49632 0.121107 0.859651
vt 55.1732 244.642
vn 0.485333 0.240432 0.840621
vt 34.3937 244.642
f 33/107/32 17/108/33 18/109/33

vt 62.6969 190.442
f 17/108/33 33/107/32 16/110/32

vn 0.5 0 0.866025
vt 62.6969 200.04
f 32/101/34 16/111/32 33/99/32

vt 62.6969 160.12
f 16/111/32 32/101/34 15/112/34

vt 26.8701 95.7143
vn 0.257349 -0.857372 0.445741
vt 54.815 79.7914
vt 62.6969 95.7143
f 32/113/35 14/114/35 15/115/35

vt 34.752 79.7914
f 14/114/35 32/113/35 26/116/35

