# Alias OBJ Model File
# Exported from SketchUp, (c) 2000-2012 Trimble Navigation Limited
# File units = meters

mtllib naturePack_149.mtl

g Mesh1 Group1 Model

usemtl Wood
v 0.986828 1.41732 -0.864746
vt 38.8515 57.4837
vn 6.76071e-018 0.0516433 0.998666
v 0.658516 0 -0.791454
vt 25.9258 1.60918
v 1.06012 0 -0.791454
vt 41.7371 1.60918
f 1/1/1 2/2/1 3/3/1

v 0.731809 1.41732 -0.864746
vt 28.8114 57.4837
f 2/2/1 1/1/1 4/4/1

usemtl Fall_Leafs
v 0.859319 1.41732 -0.631296
vt -33.8315 24.8542
vn 0 -1 -0
vt -28.8114 34.0451
vt -38.8515 34.0451
f 5/5/2 4/6/2 1/7/2

v 0.546718 1.41732 -0.811776
vt -21.5243 31.9597
f 6/8/2 4/6/2 5/5/2

v 0.731809 1.41732 -1.11977
vt -28.8114 44.0853
f 4/6/2 6/8/2 7/9/2

v 0.859319 1.41732 -1.35322
vt -33.8315 53.2762
f 6/8/2 8/10/2 7/9/2

v 0.546718 1.41732 -1.17274
vt -21.5243 46.1707
f 8/10/2 6/8/2 9/11/2

vt -31.9597 27.1107
vn -0.74372 -0.668491 6.89854e-018
v 0.338318 1.64917 -1.29306
vt -50.9077 39.3843
vt -46.1707 27.1107
f 6/12/3 10/13/3 9/14/3

v 0.338318 1.64917 -0.691456
vt -27.2227 39.3843
f 10/13/3 6/12/3 11/15/3

vt 2.66079 15.8027
vn -0.37186 -0.668491 0.64408
v 0.859319 1.64917 -0.390656
vt 21.6088 28.0762
vt -2.07622 28.0762
f 6/16/4 12/17/4 11/18/4

vt 16.8718 15.8027
f 12/17/4 6/16/4 5/19/4

v 1.17192 1.41732 -0.811776
vt 55.937 38.4188
vn 0.37186 -0.668491 0.64408
vt 36.989 50.6923
vt 41.726 38.4188
f 13/20/5 12/21/5 5/22/5

v 1.38032 1.64917 -0.691456
vt 60.674 50.6923
f 12/21/5 13/20/5 14/23/5

vt 31.9597 72.3428
vn 0.74372 -0.668491 8.54961e-018
v 1.38032 1.64917 -1.29306
vt 50.9077 84.6163
vt 27.2227 84.6163
f 13/24/6 15/25/6 14/26/6

v 1.17192 1.41732 -1.17274
vt 46.1707 72.3428
f 15/25/6 13/24/6 16/27/6

vt -46.1386 31.9597
vt -46.1386 46.1707
f 13/28/2 1/7/2 16/29/2

f 5/5/2 1/7/2 13/28/2

v 0.986828 1.41732 -1.11977
vt -38.8515 44.0853
f 17/30/2 16/29/2 1/7/2

f 17/30/2 8/10/2 16/29/2

f 7/9/2 8/10/2 17/30/2

usemtl Wood
v 1.06012 0 -1.19306
vt -41.7371 -2.42573
vn 1.70372e-018 0.0516433 -0.998666
vt -28.8114 53.4488
vt -38.8515 53.4488
f 18/31/7 7/32/7 17/33/7

v 0.658516 0 -1.19306
vt -25.9258 -2.42573
f 7/32/7 18/31/7 19/34/7

vt -41.7371 46.9708
vt -25.9258 31.1596
vt -25.9258 46.9708
f 18/35/2 2/36/2 19/37/2

vt -41.7371 31.1596
f 2/36/2 18/35/2 3/38/2

vt 46.9708 -2.15544
vn 0.998666 0.0516433 4.96085e-018
vt 34.0451 53.7191
vt 31.1596 -2.15544
f 18/39/8 1/40/8 3/41/8

vt 44.0853 53.7191
f 1/40/8 18/39/8 17/42/8

vt -34.0451 57.2135
vn -0.998666 0.0516433 -5.15314e-018
vt -46.9708 1.3389
vt -31.1596 1.3389
f 4/43/9 19/44/9 2/45/9

vt -44.0853 57.2135
f 19/44/9 4/43/9 7/46/9

usemtl Fall_Leafs
v 0.859319 1.64917 -1.59386
vt 2.07622 95.9243
vn 0.37186 -0.668491 -0.64408
vt -16.8718 83.6508
vt -2.66079 83.6508
f 20/47/10 16/48/10 8/49/10

vt -21.6088 95.9243
f 16/48/10 20/47/10 15/50/10

v 0.859319 3.24492 -1.98451
vt 9.7663 142.517
vn 0.489128 -0.207402 -0.847194
vt -21.6088 78.2955
vt 2.07622 78.2955
f 21/51/11 15/52/11 20/53/11

v 1.71864 3.24492 -1.48838
vt -29.2989 142.517
f 15/52/11 21/51/11 22/54/11

v 0.859319 7.86891 -1.5333
vt 0.884107 302.873
vn 0.498224 0.0842078 -0.862949
vt -29.2989 120.177
vt 9.7663 120.177
f 23/55/12 22/56/12 21/57/12

v 1.32787 7.86891 -1.26278
vt -20.4167 302.873
f 22/56/12 23/55/12 24/58/12

v 0.859319 8.24887 -1.28215
vt -4.05981 251.725
vn 0.433932 0.496802 -0.751592
vt -20.4167 234.488
vt 0.884107 234.488
f 25/59/13 24/60/13 23/61/13

v 1.11037 8.24887 -1.1372
vt -15.4728 251.725
f 24/60/13 25/59/13 26/62/13

vt 33.8315 50.4782
vn 0 1 -0
v 1.11037 8.24887 -0.847311
vt 43.7154 33.3587
vt 43.7154 44.7717
f 25/63/14 27/64/14 26/65/14

v 0.859319 8.24887 -0.702366
vt 33.8315 27.6522
f 25/63/14 28/66/14 27/64/14

v 0.608267 8.24887 -1.1372
vt 23.9475 44.7717
f 29/67/14 28/66/14 25/63/14

v 0.608267 8.24887 -0.847311
vt 23.9475 33.3587
f 28/66/14 29/67/14 30/68/14

v 0.390764 7.86891 -1.26278
vt -49.7156 276.507
vn -0.867864 0.496802 -3.83363e-017
vt -33.3587 293.743
vt -44.7717 293.743
f 31/69/15 30/70/15 29/71/15

v 0.390764 7.86891 -0.721736
vt -28.4148 276.507
f 30/70/15 31/69/15 32/72/15

v 0 3.24492 -1.48838
vt -58.5978 127.299
vn -0.996448 0.0842078 4.78044e-017
vt -28.4148 309.995
vt -49.7156 309.995
f 33/73/16 32/74/16 31/75/16

v 0 3.24492 -0.496128
vt -19.5326 127.299
f 32/74/16 33/73/16 34/76/16

vt -58.5978 124.975
vn -0.978256 -0.207402 -2.65786e-017
vt -27.2227 60.7537
vt -19.5326 124.975
f 33/77/17 11/78/17 34/79/17

vt -50.9077 60.7537
f 11/78/17 33/77/17 10/80/17

vt -29.2989 135.5
vn -0.489128 -0.207402 -0.847194
vt -60.674 71.2788
vt -36.989 71.2788
f 33/81/18 20/82/18 10/83/18

vt -68.3641 135.5
f 20/82/18 33/81/18 21/84/18

vt -38.1811 305.722
vn -0.498224 0.0842078 -0.862949
vt -68.3641 123.026
vt -29.2989 123.026
f 31/85/19 21/86/19 33/87/19

vt -59.4819 305.722
f 21/86/19 31/85/19 23/88/19

vt -43.125 268.532
vn -0.433932 0.496802 -0.751592
vt -59.4819 251.296
vt -38.1811 251.296
f 29/89/20 23/90/20 31/91/20

vt -54.538 268.532
f 23/90/20 29/89/20 25/92/20

vt -60.674 73.3083
vn -0.37186 -0.668491 -0.64408
vt -41.726 61.0348
vt -36.989 73.3083
f 20/93/21 9/94/21 10/95/21

vt -55.937 61.0348
f 9/94/21 20/93/21 8/96/21

vt -2.07622 57.2454
vn -0.489128 -0.207402 0.847194
v 0.859319 3.24492 -0
vt 29.2989 121.467
vt -9.7663 121.467
f 11/97/22 35/98/22 34/99/22

vt 21.6088 57.2454
f 35/98/22 11/97/22 12/100/22

vt 36.989 64.2621
vn 0.489128 -0.207402 0.847194
v 1.71864 3.24492 -0.496128
vt 68.3641 128.483
vt 29.2989 128.483
f 12/101/23 36/102/23 35/103/23

vt 60.674 64.2621
f 36/102/23 12/101/23 14/104/23

vt 27.2227 74.7871
vn 0.978256 -0.207402 -2.18022e-017
vt 58.5978 139.008
vt 19.5326 139.008
f 14/105/24 22/106/24 36/107/24

vt 50.9077 74.7871
f 22/106/24 14/105/24 15/108/24

vt 58.5978 121.601
vn 0.996448 0.0842078 1.4499e-017
v 1.32787 7.86891 -0.721736
vt 28.4148 304.297
vt 19.5326 121.601
f 22/109/25 37/110/25 36/111/25

vt 49.7156 304.297
f 37/110/25 22/109/25 24/112/25

vt 49.7156 242.892
vn 0.867864 0.496802 1.559e-017
vt 33.3587 260.128
vt 28.4148 242.892
f 24/113/26 27/114/26 37/115/26

vt 44.7717 260.128
f 27/114/26 24/113/26 26/116/26

vt 54.538 285.34
vn 0.433932 0.496802 0.751592
v 0.859319 7.86891 -0.451215
vt 38.1811 268.103
vt 59.4819 268.103
f 27/117/27 38/118/27 37/119/27

vt 43.125 285.34
f 38/118/27 27/117/27 28/120/27

vt 15.4728 302.147
vn -0.433932 0.496802 0.751592
vt -0.884107 284.911
vt 20.4167 284.911
f 28/121/28 32/122/28 38/123/28

vt 4.05981 302.147
f 32/122/28 28/121/28 30/124/28

vt -9.7663 128.724
vn -0.498224 0.0842078 0.862949
vt 20.4167 311.419
vt -0.884107 311.419
f 34/125/29 38/126/29 32/127/29

vt 29.2989 128.724
f 38/126/29 34/125/29 35/128/29

vt 29.2989 125.875
vn 0.498224 0.0842078 0.862949
vt 59.4819 308.57
vt 38.1811 308.57
f 35/129/30 37/130/30 38/131/30

vt 68.3641 125.875
f 37/130/30 35/129/30 36/132/30

