# Alias OBJ Model File
# Exported from SketchUp, (c) 2000-2012 Trimble Navigation Limited
# File units = meters

mtllib naturePack_083.mtl

g Mesh1 Group1 Model

usemtl Wood
v 2.25433 0.8321 -1.28609
vt -98.5612 39.6055
vn -0.670777 0.316412 -0.670777
v 1.93085 1.40998e-017 -1.35512
vt -91.4775 5.07136
v 2.14585 0.8321 -1.17761
vt -92.5212 39.6055
f 1/1/1 2/2/1 3/3/1

v 2.22469 2.81997e-017 -1.64896
vt -107.838 5.07136
f 2/2/1 1/1/1 4/4/1

vt -42.5911 1.68803
vn 0.553039 0.316412 -0.770734
v 2.72469 2.81997e-017 -1.29019
vt -57.5427 -32.8461
vt -33.3143 -32.8461
f 1/5/2 5/6/2 4/7/2

v 2.40417 0.8321 -1.17857
vt -49.8517 1.68803
f 5/6/2 1/5/2 6/8/2

usemtl Green_leafs
vt 88.7532 50.6334
vn 0 1 -0
v 2.33217 0.8321 -0.926507
vt 91.8176 36.4767
vt 94.6522 46.4006
f 1/9/3 7/10/3 6/11/3

v 2.14706 0.8321 -1.17691
vt 84.5298 46.335
f 8/12/3 7/10/3 1/9/3

v 2.14706 0.8321 -0.926507
vt 84.5298 36.4767
f 7/10/3 8/12/3 9/13/3

usemtl Wood
v 2.096 1.75112 -1.14743
vt 45.1745 64.2582
vn 0.99846 0.0554708 6.09596e-016
vt 36.4767 28.0205
vt 46.335 28.0205
f 10/14/4 9/15/4 8/16/4

v 2.096 1.75112 -0.8024
vt 31.5906 64.2582
vn 0.996152 0.0876392 3.01373e-016
f 11/17/5 9/15/4 10/14/4

v 2.19328 1.40998e-017 -0.648961
vt 25.5496 -4.78989
f 11/17/5 12/18/4 9/15/4

v 2.096 1.75112 -0.457368
vt 18.0066 64.2582
f 13/19/5 12/18/4 11/17/5

v 2.19328 0 -0.4012
vt 15.7953 -4.78989
f 12/18/4 13/19/5 14/20/4

vt 80.4674 67.4119
vn 0.498897 0.0664009 0.864114
v 1.49839 0 -0
vt 51.0882 -1.63615
vn 0.49923 0.0554708 0.864692
vt 82.6787 -1.63615
f 13/21/6 15/22/7 14/23/7

v 1.49839 1.75112 -0.112336
vt 53.2995 67.4119
f 15/22/7 13/21/6 16/24/6

v 2.01233 2.44496 -0.471199
vt 77.887 94.1493
vn 0.499157 0.0580348 0.864566
vt 53.2995 66.7508
vt 80.4674 66.7508
f 17/25/8 16/26/6 13/27/6

v 1.49839 2.44496 -0.174472
vt 54.5227 94.1493
f 16/26/6 17/25/8 18/28/8

v 1.949 3.58484 -0.485643
vt 76.012 140.185
vn 0.499625 0.038725 0.865376
vt 54.5227 95.2742
vt 77.887 95.2742
f 19/29/9 18/30/8 17/31/8

v 1.52242 3.58484 -0.239359
vt 56.6196 140.185
f 18/30/8 19/29/9 20/32/9

usemtl Green_leafs
v 1.949 3.58484 -0.731926
vt 76.7323 28.816
vt 59.9379 9.42357
vt 76.7323 19.1198
f 21/33/3 20/34/3 19/35/3

v 1.48128 3.58484 -0.872963
vt 58.318 34.3686
f 22/36/3 20/34/3 21/33/3

v 1.33057 3.58484 -0.350124
vt 52.3847 13.7844
f 20/34/3 22/36/3 23/37/3

usemtl Wood
v 1.44881 2.44496 -0.937851
vt -51.2769 98.09
vn -0.959987 0.0430937 -0.276709
vt -27.754 143.009
vt -49.1762 143.009
f 24/38/10 23/39/10 22/40/10

v 1.26724 2.44496 -0.307924
vt -25.4669 98.09
f 23/39/10 24/38/10 25/41/10

usemtl Green_leafs
v 0.984438 2.44496 -0.767927
vt 38.7574 30.2333
vt 49.8913 12.123
vt 57.0398 36.9233
f 26/42/3 25/43/3 24/44/3

v 0.984438 2.44496 -0.471199
vt 38.7574 18.5511
f 25/43/3 26/42/3 27/45/3

usemtl Wood
v 0.900773 1.75112 -0.8024
vt -31.5906 72.6915
vn -0.996152 0.0876392 -1.66152e-016
vt -18.5511 100.206
vn -0.992808 0.119717 -1.43251e-017
vt -30.2333 100.206
f 28/46/11 27/47/12 26/48/12

v 0.900773 1.75112 -0.457368
vt -18.0066 72.6915
f 27/47/12 28/46/11 29/49/11

v 0.86806 1.1623 -0.507287
vt -19.9719 47.5851
vn -0.99846 0.0554708 -3.17807e-016
vt -18.0066 70.8028
vt -31.5906 70.8028
f 30/50/13 29/51/11 28/52/11

v 0.849186 0.822583 -0.427585
vt -16.834 34.1898
f 29/51/11 30/50/13 31/53/13

v 0.796743 1.1623 -0.466112
vt 36.3408 45.1078
vn 0.492481 0.172765 0.853003
vt 37.3704 31.5289
vt 39.5829 45.1078
f 32/54/14 31/55/14 30/56/14

v 0.796743 0.5428 -0.34064
vt 33.8709 20.3456
vn 0.479734 0.281817 0.830924
f 33/57/15 31/55/14 32/54/14

v 0.882718 0.5428 -0.390277
vt 37.7793 20.3456
f 31/55/14 33/57/15 34/58/15

vt 33.8709 18.1256
v 0.960153 0.3304 -0.331944
vt 39.2712 9.05539
vn 0.455816 0.411007 0.789497
vt 37.7793 18.1256
f 33/59/15 35/60/16 34/61/15

v 0.796743 0.3304 -0.2376
vt 31.8425 9.05539
f 35/60/16 33/59/15 36/62/16

vt 20.4598 30.2754
vn -0.479734 0.281817 0.830924
v 0.159349 0.3304 -0.6056
vt -6.48819 21.2052
vn -0.455816 0.411007 0.789497
vt 22.4882 21.2052
f 33/63/17 37/64/18 36/65/18

v 0.261332 0.5428 -0.64976
vt -3.88031 30.2754
f 37/64/18 33/63/17 38/66/17

vt 17.9899 50.527
vn -0.492481 0.172765 0.853003
vt -3.88031 25.7649
vt 20.4598 25.7649
f 32/67/19 38/68/17 33/69/17

v 0.421955 1.1623 -0.682496
vt 0.951807 50.527
f 38/68/17 32/67/19 39/70/19

usemtl Green_leafs
vt 31.3678 18.3509
vn 2.7167e-016 1 -2.58314e-017
v 0.421955 1.1623 -0.805937
vt 16.6124 31.7298
vt 16.6124 26.8699
f 32/71/20 40/72/20 39/73/20

v 0.767868 1.1623 -0.805937
vt 30.231 31.7298
f 40/72/20 32/71/20 41/74/20

v 0.86806 1.1623 -1.00592
vt 34.1756 39.603
f 42/75/20 41/74/20 32/71/20

v 0.741895 1.1623 -0.947636
vt 29.2085 37.3085
f 41/74/20 42/75/20 43/76/20

usemtl Wood
vt -47.6332 42.4706
vn -0.415618 0.133258 -0.899725
v 0.718388 0.5428 -1.02853
vt -42.6571 17.8614
vt -42.1617 42.4706
f 42/77/21 44/78/21 43/79/21

v 0.833643 0.5428 -1.08177
vt -47.6554 17.8614
f 44/78/21 42/77/21 45/80/21

vt -39.603 47.5851
v 0.900773 1.75112 -1.14743
vt -45.1745 70.8028
vt -42.5895 23.1578
f 42/81/13 46/82/13 45/83/13

f 42/81/13 28/52/11 46/82/13

f 30/50/13 28/52/11 42/81/13

usemtl Green_leafs
vt 34.1756 19.9719
f 42/75/20 32/71/20 30/84/20

v 1.44074 1.75112 -0.999986
vt 56.7221 39.3695
vt 35.4635 45.1745
vt 35.4635 31.5906
f 47/85/3 46/86/3 28/87/3

v 1.49839 1.75112 -1.49246
vt 58.9916 58.7584
f 46/86/3 47/85/3 48/88/3

vt 82.5196 31.5906
f 48/88/3 47/85/3 11/89/3

usemtl Wood
vt -43.9513 91.6788
vn 0.288105 0.0641765 -0.955446
vt -69.8857 64.2697
vn 0.287725 0.0821038 -0.954187
vt -42.9409 64.2697
f 24/90/22 11/91/23 47/92/23

v 2.01233 2.44496 -0.767927
vt -67.1239 91.6788
f 11/91/23 24/90/22 49/93/22

vt -45.9126 138.685
vn 0.288391 0.0462286 -0.956396
vt -67.1239 93.7599
vt -43.9513 93.7599
f 22/94/24 49/95/22 24/96/22

vt -65.1458 138.685
f 49/95/22 22/94/24 21/97/24

vt 19.1198 136.661
vn 0.99846 0.0554755 -1.30092e-017
vt 30.2333 91.7149
vn 0.996152 0.0876416 -1.00911e-017
vt 28.816 136.661
f 19/98/25 49/99/26 21/100/25

vt 18.5511 91.7149
f 49/99/26 19/98/25 17/101/26

vt 18.5511 86.0814
vt 31.5906 58.567
vt 30.2333 86.0814
f 17/102/26 11/103/5 49/104/26

vt 18.0066 58.567
f 11/103/5 17/102/26 13/105/5

vt -66.7967 67.1418
vn -0.342312 0.0877566 -0.935479
vt -46.7865 94.5641
vt -66.2544 94.5641
f 47/106/27 26/107/27 24/108/27

vt -44.1596 67.1418
f 26/107/27 47/106/27 28/109/27

usemtl Green_leafs
vt 82.5196 45.1745
f 48/88/3 11/89/3 10/110/3

usemtl Wood
vt -50.0374 28.139
vn 0.49923 0.0554708 -0.864692
vt -21.709 64.3767
vt -48.8768 64.3767
f 8/111/28 48/112/28 10/113/28

vt -49.9825 28.139
f 3/114/28 48/112/28 8/111/28

vt -39.1577 -4.67132
f 2/115/28 48/112/28 3/114/28

v 1.49839 0 -1.6048
vt -19.4976 -4.67132
f 48/112/28 2/115/28 50/116/28

vt -58.9916 -2.06153e-033
vn 1.00778e-017 -1 -3.46765e-018
vt -58.9916 63.1811
vt -76.0177 53.3511
f 15/117/29 50/118/29 2/119/29

v 1.39767 0 -1.54665
vt -55.0265 60.8919
f 15/117/29 51/120/29 50/118/29

v 1.10115 0 -0.229347
vt -43.3522 9.0294
f 52/121/29 51/120/29 15/117/29

v 0.796743 0 -0.0536
vt -31.3678 2.11024
f 53/122/29 51/120/29 52/121/29

v 0.796743 0 -1.8936
vt -31.3678 74.5512
f 53/122/29 54/123/29 51/120/29

v 0 0 -0.5136
vt 0 20.2205
f 55/124/29 54/123/29 53/122/29

v 0 0 -1.4336
vt 0 56.4409
f 54/123/29 55/124/29 56/125/29

vt -23.8425 14.4417
vn -0.901094 0.433623 1.84341e-017
vt -56.4409 5.00361e-017
vn -0.900717 0.434407 1.83815e-018
vt -20.2205 1.79259e-017
f 37/126/30 56/127/31 55/128/31

v 0.159349 0.3304 -0.815534
vt -32.1076 14.4417
f 56/127/31 37/126/30 57/129/30

vt -25.5811 23.7178
vn -0.939144 0.343523 -4.0238e-018
f 38/130/32 57/129/30 37/126/30

v 0.261332 0.5428 -0.826104
vt -32.5238 23.7178
f 57/129/30 38/130/32 58/131/32

vt -26.8699 48.4646
vn -0.967992 0.25098 -4.30399e-017
vt -32.5238 23.2683
vt -25.5811 23.2683
f 39/132/33 58/133/32 38/134/32

vt -31.7298 48.4646
f 58/133/32 39/132/33 40/135/33

vt -16.6124 44.7032
vn 3.7728e-018 0.0325365 -0.999471
v 0.755492 0.5428 -0.826104
vt -29.7438 20.3006
vn 3.58839e-018 -0.00859204 -0.999963
vt -10.2887 20.3006
f 40/136/34 59/137/35 58/138/35

vt -30.231 44.7032
f 59/137/35 40/136/34 41/139/34

vt -31.4311 46.244
vn -0.98352 0.0137783 0.180276
vt -26.6282 21.8519
vn -0.983183 0.0295493 0.180215
vt -25.7594 46.244
f 43/140/36 59/141/37 41/142/36

vt -34.7306 21.8519
f 59/141/37 43/140/36 44/143/37

v 0.659291 0.3304 -1.2975
vt -45.566 14.5687
vn -0.982603 0.045313 0.180108
vt -26.6282 22.9395
vt -34.7306 22.9395
f 60/144/38 59/145/37 44/146/37

v 0.747635 0.3304 -0.815534
vt -26.2746 14.5687
f 59/145/37 60/144/38 61/147/38

usemtl Green_leafs
v 0.159349 0.3304 -1.3416
vt 6.27357 52.8189
vn -2.42359e-017 1 -5.69073e-017
vt 29.4345 32.1076
vt 25.9564 51.0828
f 62/148/39 61/149/39 60/150/39

vt 6.27357 32.1076
f 61/149/39 62/148/39 57/151/39

usemtl Wood
vt -52.8189 14.4417
f 56/127/31 57/129/30 62/152/31

vt -31.8425 -6.79181
vn -0.450358 0.434407 -0.780044
vt -64.4409 -21.2335
vt -28.2205 -21.2335
f 62/153/40 54/154/40 56/155/40

v 0.796743 0.3304 -1.7096
vt -60.8189 -6.79181
f 54/154/40 62/153/40 63/156/40

usemtl Green_leafs
vt 31.3678 67.3071
f 60/150/39 63/157/39 62/148/39

v 1.11544 0.3304 -1.5256
vt 43.915 60.063
f 63/157/39 60/150/39 64/158/39

usemtl Wood
v 0.681284 0.5428 -1.23096
vt -45.665 10.5837
vn -0.425156 0.310398 -0.850232
vt -66.141 1.78697
vt -46.0623 1.78697
f 65/159/41 64/160/41 60/161/41

v 1.06445 0.5428 -1.42256
vt -62.5311 10.5837
f 64/160/41 65/159/41 66/162/41

usemtl Green_leafs
vt 26.8222 48.463
vn -1.70943e-016 1 1.08483e-016
v 0.833643 0.5428 -1.18619
vt 32.8206 46.7004
vt 41.9074 56.0063
f 65/163/42 67/164/42 66/165/42

vt 28.283 40.4934
f 67/164/42 65/163/42 44/166/42

usemtl Wood
vt -42.8329 22.9395
f 60/144/38 44/146/37 65/167/38

usemtl Green_leafs
vt 32.8206 42.5895
f 67/164/42 44/166/42 45/168/42

usemtl Wood
vt -46.7004 23.1578
f 45/83/13 46/82/13 67/169/13

vt -53.2995 67.649
vn -0.49923 0.0554708 -0.864692
v 1.15375 0.5428 -1.371
vt -66.3259 20.004
vt -51.7736 20.004
f 46/170/43 68/171/43 67/172/43

vt -80.4674 67.649
f 48/173/43 68/171/43 46/170/43

v 1.25668 0.3304 -1.44406
vt -71.2734 11.6289
f 48/173/43 69/174/43 68/171/43

vt -82.6787 -1.39901
f 50/175/43 69/174/43 48/173/43

vt -78.1003 -1.39901
f 69/174/43 50/175/43 51/176/43

vt -17.2084 -34.8599
vn 0.450358 0.434407 -0.780044
vt -8 -20.4182
vn 0.445258 0.454954 -0.771209
vt -14.4208 -20.4182
f 51/177/44 64/178/45 69/179/45

vt 6.48819 -20.4182
f 51/177/44 63/180/44 64/178/45

vt 10.1102 -34.8599
f 63/180/44 51/177/44 54/181/44

vt -8.28976 -14.2077
vn 0.439922 0.475261 -0.761968
vt -14.4208 -23.7119
vt -8 -23.7119
f 66/182/46 69/183/45 64/184/45

vt -12.3494 -14.2077
f 69/183/45 66/182/46 68/185/46

usemtl Green_leafs
vt 45.4232 53.9765
f 66/165/42 67/164/42 68/186/42

usemtl Wood
vt -10.2887 22.9603
vt -29.4345 14.5877
vn 3.3979e-018 -0.049706 -0.998764
vt -6.27357 14.5877
f 58/187/35 61/188/47 57/189/47

vt -29.7438 22.9603
f 61/188/47 58/187/35 59/190/35

vt -10.1102 7.60709
vn -0.450358 0.434407 0.780044
vt 22.4882 22.0488
vt -6.48819 22.0488
f 55/191/48 36/192/18 37/193/18

vt 26.1102 7.60709
f 36/192/18 55/191/48 53/194/48

vt 28.2205 -6.01932
vn 0.450358 0.434407 0.780044
vt 39.2712 8.42237
vt 31.8425 8.42237
f 53/195/49 35/196/16 36/197/16

vt 42.0588 -6.01932
f 35/196/16 53/195/49 52/198/49

vt 33.0294 1.63615
vn -0.49923 0.0554708 0.864692
vt 48.8768 70.6842
vn -0.498897 0.0664009 0.864114
vt 26.2025 14.6641
f 52/199/50 16/200/51 35/201/50

vt 51.0882 1.63615
f 16/200/51 52/199/50 15/202/50

vt 22.4141 23.0392
f 35/201/50 16/200/51 34/203/50

vt 20.5364 34.0713
f 34/203/50 16/200/51 31/204/50

vt 21.709 70.6842
f 31/204/50 16/200/51 29/205/51

vt 47.6537 98.7108
vn -0.498824 0.0685319 0.863989
vt 21.709 71.3122
vt 48.8768 71.3122
f 18/206/52 29/207/51 16/208/51

vt 24.2893 98.7108
vn -0.498503 0.077323 0.863433
f 29/207/51 18/206/52 27/209/53

vt 37.1456 98.7108
f 27/209/53 18/206/52 25/210/52

vt 47.196 143.161
vn -0.499107 0.0597354 0.864479
vt 37.1456 98.2037
vt 47.6537 98.2037
f 20/211/54 25/212/52 18/213/52

vt 38.4743 143.161
f 25/212/52 20/211/54 23/214/54

vt -86.3498 15.7953
f 15/117/29 2/119/29 14/215/29

vt -86.3498 25.5496
f 14/215/29 2/119/29 12/216/29

vt -87.5863 64.9197
f 4/217/29 12/216/29 2/119/29

v 2.54154 2.81997e-017 -0.648961
vt -100.061 25.5496
f 12/216/29 4/217/29 70/218/29

vt -107.271 50.7948
f 70/218/29 4/217/29 5/219/29

vt 78.3032 -28.2226
vn 0.912143 0.316412 0.260536
vt 60.2914 6.31154
vt 52.0484 -28.2226
f 5/220/55 7/221/55 70/222/55

vt 70.6122 6.31154
f 7/221/55 5/220/55 6/223/55

vt 84.5298 42.6184
vn 5.335e-017 0.316412 0.948622
vt 100.061 8.08422
vt 91.8176 42.6184
f 9/224/56 70/225/56 7/226/56

vt 86.3498 8.08422
f 70/225/56 9/224/56 12/227/56

usemtl Green_leafs
vt 84.4822 46.3625
f 1/9/3 3/228/3 8/12/3

